<svg xmlns="http://www.w3.org/2000/svg" width="460" height="230" viewBox="0 0 372.89 186.57"><defs><style>.cls-1,.cls-2,.cls-3{fill:none;stroke-miterlimit:10;}.cls-1,.cls-2{stroke:#b3cef4;}.cls-1,.cls-3{stroke-width:1.12px;}.cls-2{stroke-width:1.2px;}.cls-3{stroke:#809bdd;}.cls-4{fill:#fafafa;}.cls-5{fill:#e4e4ea;}.cls-6{font-size:13.48px;fill:#a4a4c1;font-family:SpoqaHanSans-Regular, SpoqaHanSans;letter-spacing:-0.02em;}.cls-7{fill:#809bdd;}.cls-8{fill:#b3cef4;}.cls-9{fill:#3d34b7;}.cls-10{fill:#6999f9;}.cls-11{fill:#4529e5;}.cls-12{fill:#fff;}.cls-13{fill:#8bacef;}</style></defs><title>자산 3</title><g id="레이어_2" data-name="레이어 2"><g id="레이어_1-2" data-name="레이어 1"><path class="cls-1" d="M301.27,96.22V125a9.11,9.11,0,0,0,9.11,9.11h28.2"/><path class="cls-1" d="M244,67.63h48.18a9.11,9.11,0,0,1,9.11,9.11V96.27"/><path class="cls-1" d="M301.27,155V147.2a9.11,9.11,0,0,1,9.11-9.11h28.2"/><path class="cls-1" d="M244,170h48.18a9.11,9.11,0,0,0,9.11-9.11V147.2"/><path class="cls-2" d="M244,113.37h48.18c5,0,9.11,4.63,9.11,10.33v2.1"/><path class="cls-3" d="M71.62,32V51.52a9.11,9.11,0,0,1-9.11,9.11H34.32"/><path class="cls-3" d="M128.91,19.62H80.73a9.11,9.11,0,0,0-9.11,9.11V48.27"/><path class="cls-3" d="M71.62,145.51V74.18a9.11,9.11,0,0,0-9.11-9.11H34.32"/><path class="cls-3" d="M128.91,117.27H80.73a9.11,9.11,0,0,1-9.11-9.11V88.63"/><path class="cls-3" d="M128.91,166.73H80.73a9.11,9.11,0,0,1-9.11-9.11V138.09"/><path class="cls-4" d="M122.9.56H248.73a5.06,5.06,0,0,1,5.06,5.06v27a5.06,5.06,0,0,1-5.06,5.06H122.9a5.05,5.05,0,0,1-5.05-5.05v-27A5.06,5.06,0,0,1,122.9.56Z"/><path class="cls-5" d="M248.73,1.12a4.49,4.49,0,0,1,4.49,4.49v27a4.49,4.49,0,0,1-4.49,4.49H122.9a4.49,4.49,0,0,1-4.49-4.49v-27a4.49,4.49,0,0,1,4.49-4.49H248.73m0-1.12H122.9a5.62,5.62,0,0,0-5.62,5.62v27a5.62,5.62,0,0,0,5.62,5.62H248.73a5.62,5.62,0,0,0,5.62-5.62v-27A5.62,5.62,0,0,0,248.73,0Z"/><text class="cls-6" transform="translate(160.34 24.24)">회원 분석</text><rect class="cls-4" x="117.85" y="50.02" width="135.94" height="37.07" rx="5.06" ry="5.06"/><path class="cls-5" d="M248.73,50.58a4.49,4.49,0,0,1,4.49,4.49V82a4.49,4.49,0,0,1-4.49,4.49H122.9A4.49,4.49,0,0,1,118.41,82v-27a4.49,4.49,0,0,1,4.49-4.49H248.73m0-1.12H122.9a5.62,5.62,0,0,0-5.62,5.62V82a5.62,5.62,0,0,0,5.62,5.62H248.73A5.62,5.62,0,0,0,254.35,82v-27a5.62,5.62,0,0,0-5.62-5.62Z"/><text class="cls-6" transform="translate(160.34 73.91)">상품 분석</text><rect class="cls-4" x="117.85" y="99.47" width="135.94" height="37.07" rx="5.06" ry="5.06"/><path class="cls-5" d="M248.73,100a4.49,4.49,0,0,1,4.49,4.49v27a4.49,4.49,0,0,1-4.49,4.49H122.9a4.49,4.49,0,0,1-4.49-4.49v-27A4.49,4.49,0,0,1,122.9,100H248.73m0-1.12H122.9a5.62,5.62,0,0,0-5.62,5.62v27a5.62,5.62,0,0,0,5.62,5.62H248.73a5.62,5.62,0,0,0,5.62-5.62v-27a5.62,5.62,0,0,0-5.62-5.62Z"/><text class="cls-6" transform="translate(160.34 123.31)">유입 분석</text><path class="cls-4" d="M122.9,148.93H248.73a5.05,5.05,0,0,1,5.05,5.05v27a5.06,5.06,0,0,1-5.06,5.06H122.9a5.05,5.05,0,0,1-5.05-5.05V154A5.06,5.06,0,0,1,122.9,148.93Z"/><path class="cls-5" d="M248.73,149.49a4.49,4.49,0,0,1,4.49,4.49v27a4.49,4.49,0,0,1-4.49,4.49H122.9a4.49,4.49,0,0,1-4.49-4.49V154a4.49,4.49,0,0,1,4.49-4.49H248.73m0-1.12H122.9a5.62,5.62,0,0,0-5.62,5.62v27a5.62,5.62,0,0,0,5.62,5.62H248.73a5.62,5.62,0,0,0,5.62-5.62V154a5.62,5.62,0,0,0-5.62-5.62Z"/><text class="cls-6" transform="translate(160.34 172.79)">매출 분석</text><polygon class="cls-7" points="115.71 114.52 115.71 120.03 120.21 117.28 115.71 114.52"/><polygon class="cls-7" points="115.71 163.97 115.71 169.49 120.21 166.73 115.71 163.97"/><polygon class="cls-8" points="255.47 64.87 255.47 70.39 250.98 67.63 255.47 64.87"/><polygon class="cls-8" points="255.47 110.61 255.47 116.13 250.98 113.37 255.47 110.61"/><polygon class="cls-8" points="255.47 167.23 255.47 172.75 250.98 169.99 255.47 167.23"/><polygon class="cls-7" points="115.71 16.86 115.71 22.38 120.21 19.62 115.71 16.86"/><rect class="cls-9" x="4.37" y="43.34" width="33.66" height="27.97" rx="2.95" ry="2.95"/><path class="cls-10" d="M35.68,36.63a.94.94,0,0,0-.75-.37H7.4a.94.94,0,0,0-.75.37L.82,44.17a3.85,3.85,0,0,0,2.84,6.24h.07a4.36,4.36,0,0,0,3.63-1.94.89.89,0,0,1,1.47,0,4.36,4.36,0,0,0,7.25,0,.89.89,0,0,1,1.47,0,4.36,4.36,0,0,0,7.25,0,.89.89,0,0,1,1.47,0,4.36,4.36,0,0,0,7.25,0,.89.89,0,0,1,1.47,0,4.36,4.36,0,0,0,3.63,1.94h0a3.81,3.81,0,0,0,3-6.14Z"/><circle class="cls-11" cx="21.2" cy="36.26" r="8.72"/><path class="cls-12" d="M24.4,39.84H23l-.69-1.94H20l-.7,1.94H18l2.63-7.07h1.13Zm-4.07-3H22l-.48-1.44c-.09-.24-.15-.43-.2-.59l-.15-.5-.07.26-.07.24-.08.26-.11.32Z"/><path class="cls-12" d="M26.57,65.89v-6a5.37,5.37,0,0,0-10.74,0v6Z"/><rect class="cls-10" x="334.86" y="117.22" width="33.66" height="27.97" rx="2.95" ry="2.95"/><path class="cls-9" d="M366.17,110.51a.94.94,0,0,0-.75-.37H337.9a.94.94,0,0,0-.75.37l-5.84,7.54a3.85,3.85,0,0,0,2.84,6.24h.07a4.36,4.36,0,0,0,3.63-1.94.89.89,0,0,1,1.47,0,4.36,4.36,0,0,0,7.25,0,.89.89,0,0,1,1.47,0,4.36,4.36,0,0,0,7.25,0,.89.89,0,0,1,1.47,0,4.36,4.36,0,0,0,7.25,0,.89.89,0,0,1,1.47,0,4.36,4.36,0,0,0,3.63,1.94h0a3.81,3.81,0,0,0,3-6.14Z"/><circle class="cls-13" cx="351.69" cy="110.15" r="8.72"/><path class="cls-12" d="M349.55,106.65h2.75q2.23,0,2.23,1.73v.21a1.87,1.87,0,0,1-.05.46,1.23,1.23,0,0,1-.53.75,1.69,1.69,0,0,1-.53.22,1.86,1.86,0,0,1,1,.49,1.5,1.5,0,0,1,.4,1.12v.25a1.75,1.75,0,0,1-.55,1.37,2.48,2.48,0,0,1-1.7.5h-3Zm1.24,1v1.84h.92l.65,0a1.35,1.35,0,0,0,.48-.11.63.63,0,0,0,.29-.27,1,1,0,0,0,.1-.51v-.18a.59.59,0,0,0-.35-.6,3.08,3.08,0,0,0-1.14-.15Zm0,5h1.14a6.83,6.83,0,0,0,.72,0,1.5,1.5,0,0,0,.51-.14.68.68,0,0,0,.3-.29,1.07,1.07,0,0,0,.1-.5v-.22a1,1,0,0,0-.09-.46.69.69,0,0,0-.31-.29,1.68,1.68,0,0,0-.56-.16,6.88,6.88,0,0,0-.85,0h-1Z"/><path class="cls-12" d="M357.06,139.77v-6a5.37,5.37,0,1,0-10.74,0v6Z"/></g></g></svg>