<svg xmlns="http://www.w3.org/2000/svg" viewBox="0 0 413.74 325.56" width="460" height="362"><defs><style>.cls-1{opacity:0.5;}.cls-2{fill:#fafafa;}.cls-3{fill:#e4e4ea;}.cls-4{fill:#fff;}.cls-11,.cls-17,.cls-18,.cls-19,.cls-20,.cls-21,.cls-5,.cls-6{fill:none;stroke-miterlimit:10;}.cls-11,.cls-17,.cls-5{stroke:#e4e9f2;}.cls-5{stroke-width:0.4px;}.cls-18,.cls-21,.cls-6{stroke:#8a92a5;}.cls-6{stroke-width:0.08px;}.cls-7{opacity:0.4;}.cls-14,.cls-8{fill:#d0d0dd;}.cls-9{fill:#3d34b7;}.cls-10{fill:#edf0f4;}.cls-11{stroke-width:0.41px;}.cls-12{fill:#c8cfd6;}.cls-13{fill:#e7ebf0;}.cls-14,.cls-20{opacity:0.6;}.cls-15{fill:#f6f7fb;}.cls-16{fill:#dbe0eb;}.cls-17{stroke-width:0.4px;}.cls-18{stroke-width:0.09px;}.cls-19{stroke:#3d34b7;}.cls-19,.cls-20{stroke-width:0.93px;}.cls-20{stroke:#d0d0dd;}.cls-21{stroke-width:0.1px;}.cls-22{fill:#b3cef4;}.cls-23{fill:#6999f9;}.cls-24{fill:#2c1f7c;}.cls-25{fill:#4529e5;}.cls-26{fill:#8bacef;}</style></defs><title>자산 4</title><g id="레이어_2" data-name="레이어 2"><g id="레이어_1-2" data-name="레이어 1"><g class="cls-1"><rect class="cls-2" x="83.13" y="0.46" width="82.94" height="56.59"/><path class="cls-3" d="M165.6.93V56.59h-82V.93h82m.93-.93H82.67V57.52h83.86V0Z"/></g><g class="cls-1"><path class="cls-2" d="M165.8,57.06V.46h77.29a5.66,5.66,0,0,1,5.65,5.65V57.06Z"/><path class="cls-3" d="M243.08.93a5.19,5.19,0,0,1,5.19,5.19V56.59h-82V.93h76.82m0-.93H165.33V57.52H249.2V6.12A6.12,6.12,0,0,0,243.08,0Z"/></g><path class="cls-2" d="M4.53,325.09A4.07,4.07,0,0,1,.46,321V6.11A5.66,5.66,0,0,1,6.12.46H83.4V56.13H409.21a4.07,4.07,0,0,1,4.07,4.07V321a4.07,4.07,0,0,1-4.07,4.07Z"/><path class="cls-3" d="M82.94.93V56.59H409.21a3.6,3.6,0,0,1,3.6,3.6V321a3.6,3.6,0,0,1-3.6,3.6H4.53A3.6,3.6,0,0,1,.93,321V6.12A5.19,5.19,0,0,1,6.12.93H82.94M83.86,0H6.12A6.12,6.12,0,0,0,0,6.12V321a4.54,4.54,0,0,0,4.53,4.53H409.21a4.54,4.54,0,0,0,4.53-4.53V60.2a4.54,4.54,0,0,0-4.53-4.53H83.86V0Z"/><rect class="cls-4" x="211.13" y="90.92" width="186.18" height="105.7"/><rect class="cls-5" x="211.13" y="90.92" width="186.18" height="105.7"/><line class="cls-6" x1="232.9" y1="185.1" x2="390.29" y2="185.14"/><line class="cls-6" x1="232.91" y1="170.29" x2="390.3" y2="170.34"/><line class="cls-6" x1="232.91" y1="155.49" x2="390.3" y2="155.53"/><line class="cls-6" x1="232.92" y1="140.68" x2="390.31" y2="140.73"/><line class="cls-6" x1="232.92" y1="125.88" x2="390.31" y2="125.93"/><line class="cls-6" x1="232.93" y1="111.08" x2="390.32" y2="111.12"/><g class="cls-7"><rect class="cls-8" x="243.6" y="164.57" width="3.28" height="20.35"/><rect class="cls-8" x="263.62" y="160.2" width="3.28" height="24.72"/><rect class="cls-8" x="283.64" y="174.45" width="3.28" height="10.48"/><rect class="cls-8" x="313.68" y="158.2" width="3.28" height="26.73"/><rect class="cls-8" x="333.71" y="152.23" width="3.28" height="32.71"/><rect class="cls-8" x="373.75" y="164.6" width="3.28" height="20.35"/><rect class="cls-8" x="353.73" y="161" width="3.28" height="23.95"/><rect class="cls-8" x="253.61" y="158.18" width="3.28" height="26.73"/><rect class="cls-8" x="273.63" y="164.58" width="3.28" height="20.35"/><rect class="cls-8" x="303.67" y="169.48" width="3.28" height="15.45"/><rect class="cls-8" x="323.69" y="164.59" width="3.28" height="20.35"/><rect class="cls-8" x="343.71" y="170.35" width="3.28" height="14.6"/><rect class="cls-8" x="383.76" y="169.39" width="3.28" height="15.56"/><rect class="cls-8" x="363.74" y="174.61" width="3.28" height="10.34"/><rect class="cls-8" x="293.66" y="170.33" width="3.28" height="14.6"/></g><rect class="cls-9" x="240.23" y="153.93" width="3.28" height="30.98"/><rect class="cls-9" x="250.25" y="131.28" width="3.28" height="53.64"/><rect class="cls-9" x="260.26" y="134.75" width="3.28" height="50.17"/><rect class="cls-9" x="270.28" y="116.67" width="3.28" height="68.25"/><rect class="cls-9" x="280.29" y="111.09" width="3.28" height="73.83"/><rect class="cls-9" x="300.31" y="147.06" width="3.28" height="37.87"/><rect class="cls-9" x="320.33" y="138.25" width="3.28" height="46.69"/><rect class="cls-9" x="340.36" y="125.08" width="3.28" height="59.86"/><rect class="cls-9" x="360.38" y="151.4" width="3.28" height="33.54"/><rect class="cls-9" x="380.4" y="127.07" width="3.28" height="57.88"/><rect class="cls-9" x="290.3" y="138.4" width="3.28" height="46.53"/><rect class="cls-9" x="310.32" y="129.15" width="3.28" height="55.78"/><rect class="cls-9" x="330.35" y="118.64" width="3.28" height="66.3"/><rect class="cls-9" x="350.37" y="139.81" width="3.28" height="45.14"/><rect class="cls-9" x="370.39" y="125.09" width="3.28" height="59.86"/><rect class="cls-10" x="211.12" y="71.9" width="186.23" height="19.68"/><rect class="cls-11" x="211.12" y="71.9" width="186.23" height="19.68"/><path class="cls-12" d="M381,80.59h8.25a1.12,1.12,0,0,1,1.12,1.12v0a1.13,1.13,0,0,1-1.13,1.13H381a1.13,1.13,0,0,1-1.13-1.13v0A1.13,1.13,0,0,1,381,80.59Z"/><rect class="cls-12" x="221.19" y="79.32" width="37.5" height="3.75" rx="1.88" ry="1.88"/><rect class="cls-13" x="218.2" y="109.4" width="13.5" height="3.35" rx="1.67" ry="1.67"/><rect class="cls-13" x="218.2" y="124.2" width="13.5" height="3.35" rx="1.67" ry="1.67"/><rect class="cls-13" x="218.19" y="139.01" width="13.5" height="3.35" rx="1.67" ry="1.67"/><rect class="cls-13" x="218.19" y="154.22" width="13.5" height="3.35" rx="1.67" ry="1.67"/><rect class="cls-13" x="218.18" y="168.35" width="13.5" height="3.35" rx="1.67" ry="1.67"/><rect class="cls-13" x="218.18" y="183.23" width="13.5" height="3.35" rx="1.67" ry="1.67"/><path class="cls-14" d="M290.19,97.05h8.25a1.13,1.13,0,0,1,1.13,1.13v0a1.12,1.12,0,0,1-1.12,1.12h-8.25a1.13,1.13,0,0,1-1.13-1.13v0a1.13,1.13,0,0,1,1.13-1.13Z"/><rect class="cls-9" x="311.1" y="97.06" width="10.5" height="2.25" rx="1.13" ry="1.13"/><rect class="cls-4" x="174.93" y="222.29" width="59.9" height="88.06"/><rect class="cls-11" x="174.93" y="222.29" width="59.9" height="88.06"/><rect class="cls-10" x="174.94" y="207.51" width="59.92" height="19.84"/><rect class="cls-11" x="174.94" y="207.51" width="59.92" height="19.84"/><path class="cls-13" d="M187,231.36h-3.5a4.14,4.14,0,1,0,0,8.28H187a4.14,4.14,0,0,0,0-8.28Z"/><path class="cls-13" d="M217.31,231.36h-3.5a4.14,4.14,0,1,0,0,8.28h3.5a4.14,4.14,0,1,0,0-8.28Z"/><rect class="cls-13" x="179.96" y="249.45" width="7.57" height="2.91" rx="1.46" ry="1.46"/><rect class="cls-13" x="210.5" y="249.46" width="7.57" height="2.91" rx="1.46" ry="1.46"/><rect class="cls-9" x="179.96" y="254.36" width="17.78" height="4.01" rx="2" ry="2"/><rect class="cls-14" x="210.21" y="254.37" width="17.78" height="4.01" rx="2" ry="2"/><rect class="cls-13" x="179.96" y="270.61" width="7.57" height="2.91" rx="1.46" ry="1.46"/><rect class="cls-13" x="210.49" y="270.62" width="7.57" height="2.91" rx="1.46" ry="1.46"/><rect class="cls-9" x="179.96" y="275.52" width="17.78" height="4.01" rx="2" ry="2"/><rect class="cls-14" x="210.21" y="275.53" width="17.78" height="4.01" rx="2" ry="2"/><rect class="cls-13" x="179.95" y="290.98" width="7.57" height="2.91" rx="1.46" ry="1.46"/><rect class="cls-13" x="210.49" y="290.99" width="7.57" height="2.91" rx="1.46" ry="1.46"/><rect class="cls-9" x="179.95" y="295.89" width="17.78" height="4.01" rx="2" ry="2"/><rect class="cls-14" x="210.2" y="295.9" width="17.78" height="4.01" rx="2" ry="2"/><rect class="cls-12" x="181.93" y="215.52" width="24.11" height="3.75" rx="1.88" ry="1.88"/><rect class="cls-4" x="14.54" y="226.59" width="153.39" height="83.24"/><rect class="cls-11" x="14.54" y="226.59" width="153.39" height="83.24"/><rect class="cls-10" x="14.56" y="207.57" width="153.42" height="19.68"/><rect class="cls-11" x="14.56" y="207.57" width="153.42" height="19.68"/><rect class="cls-15" x="14.8" y="244.12" width="152.69" height="16.4"/><rect class="cls-15" x="14.86" y="276.82" width="152.69" height="16.4"/><rect class="cls-16" x="20.34" y="250.25" width="34.44" height="4.1" rx="2.05" ry="2.05"/><rect class="cls-9" x="20.34" y="250.25" width="33.36" height="4.1" rx="2.05" ry="2.05"/><rect class="cls-16" x="20.34" y="266.9" width="34.44" height="4.1" rx="2.05" ry="2.05"/><rect class="cls-9" x="20.34" y="266.89" width="17.22" height="4.1" rx="2.05" ry="2.05"/><rect class="cls-16" x="20.33" y="283.28" width="34.44" height="4.1" rx="2.05" ry="2.05"/><rect class="cls-9" x="20.33" y="283.28" width="23.68" height="4.1" rx="2.05" ry="2.05"/><rect class="cls-16" x="20.33" y="299.27" width="34.44" height="4.1" rx="2.05" ry="2.05"/><rect class="cls-9" x="20.33" y="299.27" width="27.55" height="4.1" rx="2.05" ry="2.05"/><rect class="cls-12" x="23.9" y="215.52" width="37.5" height="3.75" rx="1.88" ry="1.88"/><rect class="cls-14" x="20.75" y="234.81" width="18" height="3.35" rx="1.67" ry="1.67"/><rect class="cls-14" x="66.25" y="234.83" width="13.5" height="3.35" rx="1.67" ry="1.67"/><rect class="cls-14" x="100.1" y="234.84" width="19.5" height="3.35" rx="1.67" ry="1.67"/><rect class="cls-14" x="137.41" y="234.85" width="13.5" height="3.35" rx="1.67" ry="1.67"/><rect class="cls-12" x="66.25" y="250.44" width="12.75" height="3.75" rx="1.77" ry="1.77"/><rect class="cls-12" x="66.24" y="266.8" width="20.56" height="3.75" rx="1.88" ry="1.88"/><rect class="cls-12" x="66.24" y="283.15" width="24.9" height="3.75" rx="1.88" ry="1.88"/><rect class="cls-12" x="100.77" y="283.15" width="7.5" height="3.75" rx="1.88" ry="1.88"/><rect class="cls-12" x="100.77" y="266.8" width="7.5" height="3.75" rx="1.88" ry="1.88"/><rect class="cls-12" x="100.78" y="250.45" width="7.5" height="3.75" rx="1.88" ry="1.88"/><rect class="cls-14" x="134.78" y="250.46" width="18.75" height="3.75" rx="1.88" ry="1.88"/><rect class="cls-14" x="134.78" y="266.82" width="18.75" height="3.75" rx="1.88" ry="1.88"/><rect class="cls-14" x="134.77" y="283.17" width="18.75" height="3.75" rx="1.88" ry="1.88"/><rect class="cls-4" x="14.54" y="90.92" width="186.18" height="105.7"/><rect class="cls-17" x="14.54" y="90.92" width="186.18" height="105.7"/><rect class="cls-10" x="14.56" y="71.9" width="186.23" height="19.68"/><rect class="cls-11" x="14.56" y="71.9" width="186.23" height="19.68"/><rect class="cls-12" x="183.62" y="80.59" width="10.5" height="2.25" rx="1.13" ry="1.13"/><path class="cls-14" d="M94.76,97.05H103a1.13,1.13,0,0,1,1.13,1.13v0A1.12,1.12,0,0,1,103,99.3H94.76a1.13,1.13,0,0,1-1.13-1.13v0A1.13,1.13,0,0,1,94.76,97.05Z"/><rect class="cls-9" x="115.68" y="97.06" width="10.5" height="2.25" rx="1.13" ry="1.13"/><line class="cls-18" x1="28.74" y1="185.1" x2="186.51" y2="185.14"/><line class="cls-18" x1="28.74" y1="170.29" x2="186.51" y2="170.34"/><line class="cls-18" x1="28.75" y1="155.49" x2="186.52" y2="155.53"/><line class="cls-18" x1="28.75" y1="140.68" x2="186.52" y2="140.73"/><line class="cls-18" x1="28.76" y1="125.88" x2="186.53" y2="125.93"/><line class="cls-18" x1="28.76" y1="111.08" x2="186.53" y2="111.12"/><polyline class="cls-19" points="34.97 157.41 56.26 150.74 68.82 158.64 83.79 181.51 99.34 158.95 115.13 163.96 137.73 155.11 151.93 134.56 167.09 128.6 180.71 117.09"/><polyline class="cls-20" points="35.19 168.94 56.34 155.01 68.94 164.71 83.67 175.24 99.46 165.1 115.28 172.15 137.94 165.73 152.07 142.15 167.19 133.8 180.82 123.18"/><rect class="cls-12" x="28.19" y="79.32" width="37.5" height="3.75" rx="1.88" ry="1.88"/><rect class="cls-4" x="241.57" y="226.6" width="155.73" height="83.24"/><rect class="cls-11" x="241.57" y="226.6" width="155.73" height="83.24"/><rect class="cls-10" x="241.58" y="207.57" width="155.77" height="19.68"/><rect class="cls-11" x="241.58" y="207.57" width="155.77" height="19.68"/><line class="cls-21" x1="263.61" y1="294.86" x2="386.63" y2="294.88"/><line class="cls-21" x1="263.61" y1="284.91" x2="386.64" y2="284.93"/><line class="cls-21" x1="263.62" y1="274.96" x2="386.64" y2="274.99"/><line class="cls-21" x1="263.62" y1="265.01" x2="386.65" y2="265.04"/><line class="cls-21" x1="263.63" y1="255.07" x2="386.65" y2="255.09"/><line class="cls-21" x1="263.63" y1="245.12" x2="386.65" y2="245.14"/><rect class="cls-13" x="251.01" y="243.87" width="8.8" height="3.35" rx="1.35" ry="1.35"/><rect class="cls-13" x="251" y="263.34" width="8.8" height="3.35" rx="1.35" ry="1.35"/><rect class="cls-13" x="251" y="283.34" width="8.8" height="3.35" rx="1.35" ry="1.35"/><rect class="cls-14" x="306.37" y="232.74" width="10.5" height="2.25" rx="1.13" ry="1.13"/><path class="cls-9" d="M329.54,232.75h8.25a1.13,1.13,0,0,1,1.13,1.13v0a1.12,1.12,0,0,1-1.12,1.12h-8.25a1.13,1.13,0,0,1-1.13-1.13v0a1.13,1.13,0,0,1,1.13-1.13Z"/><rect class="cls-12" x="247.12" y="215.53" width="37.5" height="3.75" rx="1.88" ry="1.88"/><polyline class="cls-19" points="262.87 294.93 293.05 293.87 305.3 275.55 315.4 259.66 333.56 255.67 352.23 256.7 364.45 260.42 380.26 252.28"/><polyline class="cls-20" points="262.87 294.93 296.42 294.94 316.96 268.41 334.85 266.86 352.71 263.07 364.68 269.34 380.26 259.18"/><g class="cls-7"><rect class="cls-22" x="193.87" y="24.17" width="26.8" height="22.27" rx="2.35" ry="2.35"/><path class="cls-23" d="M218.79,18.83a.75.75,0,0,0-.59-.29H196.29a.75.75,0,0,0-.59.29l-4.65,6a3.07,3.07,0,0,0,2.26,5h.06a3.47,3.47,0,0,0,2.89-1.54.71.71,0,0,1,1.17,0,3.47,3.47,0,0,0,5.77,0,.71.71,0,0,1,1.17,0,3.47,3.47,0,0,0,5.77,0,.71.71,0,0,1,1.17,0,3.47,3.47,0,0,0,5.77,0,.71.71,0,0,1,1.17,0,3.47,3.47,0,0,0,2.89,1.54h0a3,3,0,0,0,2.37-4.89Z"/><circle class="cls-24" cx="207.27" cy="18.54" r="6.94"/><path class="cls-4" d="M207.41,15.67a3.58,3.58,0,0,1,1.05.14,2.66,2.66,0,0,1,.88.48l-.54.77a1.8,1.8,0,0,0-.68-.38,2.76,2.76,0,0,0-.72-.09,1.65,1.65,0,0,0-.49.07,1,1,0,0,0-.43.27,1.43,1.43,0,0,0-.3.53,2.65,2.65,0,0,0-.12.86v.58a2.32,2.32,0,0,0,.11.76,1.38,1.38,0,0,0,.29.51,1.1,1.1,0,0,0,.43.29,1.43,1.43,0,0,0,.51.09,2.81,2.81,0,0,0,.8-.12,1.71,1.71,0,0,0,.75-.46l.53.77a2.14,2.14,0,0,1-.53.39,3.25,3.25,0,0,1-.55.23,2.74,2.74,0,0,1-.54.11l-.5,0a2.9,2.9,0,0,1-.88-.13,1.94,1.94,0,0,1-.73-.42,2.06,2.06,0,0,1-.5-.73,2.78,2.78,0,0,1-.19-1.08v-1a2.9,2.9,0,0,1,.18-1.09,2.1,2.1,0,0,1,.5-.76,2,2,0,0,1,.75-.44A2.91,2.91,0,0,1,207.41,15.67Z"/><path class="cls-4" d="M211.54,42.12V37.31a4.28,4.28,0,1,0-8.55,0v4.81Z"/></g><rect class="cls-9" x="31.22" y="24.17" width="26.8" height="22.27" rx="2.35" ry="2.35"/><path class="cls-23" d="M56.15,18.83a.75.75,0,0,0-.59-.29H33.64a.75.75,0,0,0-.59.29l-4.65,6a3.07,3.07,0,0,0,2.26,5h.06a3.47,3.47,0,0,0,2.89-1.54.71.71,0,0,1,1.17,0,3.47,3.47,0,0,0,5.77,0,.71.71,0,0,1,1.17,0,3.47,3.47,0,0,0,5.77,0,.71.71,0,0,1,1.17,0,3.47,3.47,0,0,0,5.77,0,.71.71,0,0,1,1.17,0,3.47,3.47,0,0,0,2.89,1.54h0a3,3,0,0,0,2.37-4.89Z"/><circle class="cls-25" cx="44.62" cy="18.54" r="6.94"/><path class="cls-4" d="M47.17,21.39H46.09l-.55-1.55h-1.9l-.55,1.55h-1l2.09-5.63h.9ZM43.93,19h1.32l-.38-1.15c-.07-.19-.12-.34-.16-.47L44.59,17l-.06.21-.06.19-.07.21-.09.26Z"/><path class="cls-4" d="M48.89,42.12V37.31a4.28,4.28,0,1,0-8.55,0v4.81Z"/><g class="cls-7"><rect class="cls-23" x="112.54" y="24.17" width="26.8" height="22.27" rx="2.35" ry="2.35"/><path class="cls-9" d="M137.47,18.83a.75.75,0,0,0-.59-.29H115a.75.75,0,0,0-.59.29l-4.65,6a3.07,3.07,0,0,0,2.26,5H112a3.47,3.47,0,0,0,2.89-1.54.71.71,0,0,1,1.17,0,3.47,3.47,0,0,0,5.77,0,.71.71,0,0,1,1.17,0,3.47,3.47,0,0,0,5.77,0,.71.71,0,0,1,1.17,0,3.47,3.47,0,0,0,5.77,0,.71.71,0,0,1,1.17,0,3.47,3.47,0,0,0,2.89,1.54h0a3,3,0,0,0,2.37-4.89Z"/><circle class="cls-26" cx="125.94" cy="18.54" r="6.94"/><path class="cls-4" d="M124.23,15.76h2.19q1.77,0,1.77,1.37v.16a1.49,1.49,0,0,1,0,.36,1,1,0,0,1-.43.59,1.35,1.35,0,0,1-.42.18,1.48,1.48,0,0,1,.83.39,1.19,1.19,0,0,1,.32.89v.2A1.4,1.4,0,0,1,128,21a2,2,0,0,1-1.35.39h-2.43Zm1,.83v1.47H126l.52,0a1.08,1.08,0,0,0,.38-.09.5.5,0,0,0,.23-.21.84.84,0,0,0,.08-.41v-.14a.47.47,0,0,0-.28-.48,2.45,2.45,0,0,0-.91-.12Zm0,4h.91a5.44,5.44,0,0,0,.57,0,1.19,1.19,0,0,0,.41-.11.54.54,0,0,0,.24-.23.86.86,0,0,0,.08-.4v-.17a.8.8,0,0,0-.07-.36.55.55,0,0,0-.25-.23,1.34,1.34,0,0,0-.45-.12,5.48,5.48,0,0,0-.68,0h-.76Z"/><path class="cls-4" d="M130.22,42.12V37.31a4.28,4.28,0,0,0-8.55,0v4.81Z"/></g></g></g></svg>