<svg xmlns="http://www.w3.org/2000/svg" width="460" height="192" viewBox="0 0 465.35 194.13"><defs><style>.cls-1,.cls-12{opacity:0.6;}.cls-2{fill:#fafafa;}.cls-3{fill:#e4e4ea;}.cls-17,.cls-4{fill:#fff;}.cls-5,.cls-6{fill:#a4a4c1;}.cls-6{font-size:6.39px;letter-spacing:-0.03em;}.cls-17,.cls-6{font-family:SpoqaHanSans-Regular, SpoqaHanSans;}.cls-18,.cls-19,.cls-7,.cls-8{fill:none;stroke-miterlimit:10;}.cls-18,.cls-7{stroke:#e4e9f2;}.cls-7{stroke-width:0.63px;}.cls-19,.cls-8{stroke:#8a92a5;}.cls-8{stroke-width:0.07px;}.cls-12,.cls-9{fill:#d0d0dd;}.cls-10{fill:#3d34b7;}.cls-11{fill:#e7ebf0;}.cls-13{fill:#b3cef4;}.cls-14{fill:#6999f9;}.cls-15{fill:#2c1f7c;}.cls-16{fill:#8bacef;}.cls-17{font-size:8.1px;letter-spacing:-0.02em;}.cls-18{stroke-width:0.79px;}.cls-19{stroke-width:0.08px;}.cls-20{fill:#4529e5;}</style></defs><title>자산 5</title><g id="레이어_2" data-name="레이어 2"><g id="레이어_1-2" data-name="레이어 1"><g class="cls-1"><rect class="cls-2" x="295.07" y="47.79" width="169.96" height="134.53" rx="1.57" ry="1.57"/><path class="cls-3" d="M463.47,48.1a1.25,1.25,0,0,1,1.25,1.25V180.75a1.25,1.25,0,0,1-1.25,1.25H296.64a1.25,1.25,0,0,1-1.25-1.25V49.36a1.25,1.25,0,0,1,1.25-1.25H463.47m0-.63H296.64a1.88,1.88,0,0,0-1.88,1.88V180.75a1.88,1.88,0,0,0,1.88,1.88H463.47a1.88,1.88,0,0,0,1.88-1.88V49.36a1.88,1.88,0,0,0-1.88-1.88Z"/><path class="cls-4" d="M364.64,74.23a7.06,7.06,0,1,1,0-14.13h30.83a7.06,7.06,0,0,1,0,14.13Z"/><path class="cls-3" d="M395.47,60.41a6.75,6.75,0,1,1,0,13.5H364.64a6.75,6.75,0,0,1,0-13.5h30.83m0-.63H364.64a7.38,7.38,0,0,0,0,14.75h30.83a7.38,7.38,0,1,0,0-14.75Z"/><polygon class="cls-5" points="366.26 64.63 367.08 66.3 368.92 66.57 367.59 67.86 367.9 69.7 366.26 68.83 364.61 69.7 364.92 67.86 363.59 66.57 365.43 66.3 366.26 64.63"/><path class="cls-5" d="M367.9,70.18a.48.48,0,0,1-.22-.06l-1.42-.75-1.42.75a.48.48,0,0,1-.7-.51l.27-1.58-1.15-1.12a.48.48,0,0,1,.27-.82l1.59-.23.71-1.44a.5.5,0,0,1,.86,0l.71,1.44,1.59.23a.48.48,0,0,1,.27.82L368.1,68l.27,1.58a.48.48,0,0,1-.47.56Zm-1.65-1.83a.48.48,0,0,1,.22.06l.79.41-.15-.87a.48.48,0,0,1,.14-.42l.64-.62-.88-.13a.48.48,0,0,1-.36-.26l-.39-.8-.39.8a.48.48,0,0,1-.36.26l-.88.13.64.62a.48.48,0,0,1,.14.42l-.15.87.79-.41A.48.48,0,0,1,366.26,68.35Z"/><text class="cls-6" transform="translate(373.21 69.7)">즐겨찾기</text><rect class="cls-4" x="306.91" y="84.18" width="148.89" height="84.52"/><rect class="cls-7" x="306.91" y="84.18" width="148.89" height="84.52"/><line class="cls-8" x1="324.32" y1="159.49" x2="450.18" y2="159.53"/><line class="cls-8" x1="324.33" y1="147.65" x2="450.19" y2="147.69"/><line class="cls-8" x1="324.33" y1="135.81" x2="450.19" y2="135.85"/><line class="cls-8" x1="324.33" y1="123.98" x2="450.19" y2="124.01"/><line class="cls-8" x1="324.34" y1="112.14" x2="450.2" y2="112.17"/><line class="cls-8" x1="324.34" y1="100.3" x2="450.2" y2="100.34"/><rect class="cls-9" x="333.48" y="149.43" width="3.21" height="9.91"/><rect class="cls-9" x="353.09" y="133.13" width="3.21" height="26.22"/><rect class="cls-9" x="372.69" y="140.58" width="3.21" height="18.77"/><rect class="cls-9" x="402.09" y="142.21" width="3.21" height="17.15"/><rect class="cls-9" x="421.7" y="145.73" width="3.21" height="13.64"/><rect class="cls-9" x="441.3" y="152.03" width="3.21" height="7.34"/><rect class="cls-9" x="343.28" y="141.58" width="3.21" height="17.77"/><rect class="cls-9" x="362.88" y="144.69" width="3.21" height="14.66"/><rect class="cls-9" x="392.29" y="148.23" width="3.21" height="11.13"/><rect class="cls-9" x="411.9" y="126.44" width="3.21" height="32.92"/><rect class="cls-9" x="431.5" y="148.4" width="3.21" height="10.97"/><rect class="cls-9" x="382.49" y="141.77" width="3.21" height="17.58"/><rect class="cls-10" x="330.18" y="146.96" width="3.21" height="12.38" transform="translate(663.54 306.39) rotate(-179.98)"/><rect class="cls-10" x="339.99" y="136.01" width="3.21" height="23.33" transform="translate(683.17 295.42) rotate(-179.99)"/><rect class="cls-10" x="349.79" y="129.58" width="3.21" height="29.76" transform="translate(702.78 288.99) rotate(-179.99)"/><rect class="cls-10" x="359.6" y="122.91" width="3.21" height="36.44" transform="translate(722.37 282.34) rotate(-179.99)"/><rect class="cls-10" x="369.4" y="133.18" width="3.21" height="26.18" transform="translate(741.98 292.6) rotate(-179.99)"/><rect class="cls-10" x="389" y="137.42" width="3.21" height="21.94" transform="translate(781.16 296.92) rotate(-179.98)"/><rect class="cls-10" x="408.61" y="120.36" width="3.21" height="38.99" transform="translate(820.38 279.85) rotate(-179.98)"/><rect class="cls-10" x="428.21" y="137.11" width="3.21" height="22.26" transform="translate(859.57 296.65) rotate(-179.98)"/><rect class="cls-10" x="379.2" y="127.26" width="3.21" height="32.09" transform="translate(761.57 286.73) rotate(-179.98)"/><rect class="cls-10" x="398.8" y="125.06" width="3.21" height="34.3" transform="translate(800.77 284.57) rotate(-179.98)"/><rect class="cls-10" x="418.41" y="139.06" width="3.21" height="20.3" transform="translate(840 298.51) rotate(-179.99)"/><rect class="cls-10" x="438.01" y="148.96" width="3.21" height="10.41" transform="matrix(-1, 0, 0, -1, 879.19, 308.45)"/><rect class="cls-11" x="312.56" y="98.96" width="10.8" height="2.68" rx="1.34" ry="1.34"/><rect class="cls-11" x="312.56" y="110.8" width="10.8" height="2.68" rx="1.34" ry="1.34"/><rect class="cls-11" x="312.56" y="122.63" width="10.8" height="2.68" rx="1.34" ry="1.34"/><rect class="cls-11" x="312.55" y="134.8" width="10.8" height="2.68" rx="1.34" ry="1.34"/><rect class="cls-11" x="312.55" y="146.1" width="10.8" height="2.68" rx="1.34" ry="1.34"/><rect class="cls-11" x="312.55" y="158" width="10.8" height="2.68" rx="1.34" ry="1.34"/><rect class="cls-12" x="369.23" y="89.08" width="8.4" height="1.8" rx="0.9" ry="0.9"/><rect class="cls-10" x="386.86" y="89.09" width="8.4" height="1.8" rx="0.9" ry="0.9"/><rect class="cls-13" x="369.68" y="37.65" width="20.74" height="17.23" rx="1.82" ry="1.82"/><path class="cls-14" d="M389,33.51a.58.58,0,0,0-.46-.23h-17a.58.58,0,0,0-.46.23l-3.6,4.65A2.37,2.37,0,0,0,369.24,42h0a2.68,2.68,0,0,0,2.23-1.19.55.55,0,0,1,.91,0,2.69,2.69,0,0,0,4.47,0,.55.55,0,0,1,.91,0,2.69,2.69,0,0,0,4.47,0,.55.55,0,0,1,.91,0,2.69,2.69,0,0,0,4.47,0,.55.55,0,0,1,.91,0A2.68,2.68,0,0,0,390.78,42h0a2.35,2.35,0,0,0,1.84-3.78Z"/><circle class="cls-15" cx="380.05" cy="33.29" r="5.37"/><path class="cls-4" d="M380.16,31.07a2.77,2.77,0,0,1,.81.11,2.06,2.06,0,0,1,.68.37l-.42.59a1.39,1.39,0,0,0-.53-.29,2.13,2.13,0,0,0-.56-.07,1.28,1.28,0,0,0-.38.06.76.76,0,0,0-.33.21,1.11,1.11,0,0,0-.24.41,2.05,2.05,0,0,0-.09.67v.45a1.79,1.79,0,0,0,.08.59,1.07,1.07,0,0,0,.23.39.85.85,0,0,0,.33.22,1.1,1.1,0,0,0,.39.07,2.18,2.18,0,0,0,.62-.09,1.33,1.33,0,0,0,.58-.36l.41.59a1.66,1.66,0,0,1-.41.31,2.51,2.51,0,0,1-.43.18,2.12,2.12,0,0,1-.42.08l-.39,0a2.25,2.25,0,0,1-.68-.1,1.5,1.5,0,0,1-.57-.33,1.59,1.59,0,0,1-.39-.57,2.15,2.15,0,0,1-.15-.83v-.78a2.25,2.25,0,0,1,.14-.84,1.63,1.63,0,0,1,.39-.59,1.53,1.53,0,0,1,.58-.34A2.25,2.25,0,0,1,380.16,31.07Z"/><path class="cls-4" d="M383.36,51.54V47.81a3.31,3.31,0,0,0-6.62,0v3.72Z"/></g><g class="cls-1"><rect class="cls-2" x="0.31" y="47.79" width="169.96" height="134.53" rx="1.57" ry="1.57"/><path class="cls-3" d="M168.71,48.1A1.25,1.25,0,0,1,170,49.36V180.75a1.25,1.25,0,0,1-1.25,1.25H1.88a1.25,1.25,0,0,1-1.25-1.25V49.36A1.25,1.25,0,0,1,1.88,48.1H168.71m0-.63H1.88A1.88,1.88,0,0,0,0,49.36V180.75a1.88,1.88,0,0,0,1.88,1.88H168.71a1.88,1.88,0,0,0,1.88-1.88V49.36a1.88,1.88,0,0,0-1.88-1.88Z"/><path class="cls-4" d="M67.6,75.42a7.06,7.06,0,0,1,0-14.13H98.44a7.06,7.06,0,0,1,0,14.13Z"/><path class="cls-3" d="M98.44,61.61a6.75,6.75,0,0,1,0,13.5H67.6a6.75,6.75,0,1,1,0-13.5H98.44m0-.63H67.6a7.38,7.38,0,0,0,0,14.75H98.44a7.38,7.38,0,0,0,0-14.75Z"/><polygon class="cls-5" points="69.22 65.82 70.04 67.49 71.88 67.76 70.55 69.05 70.87 70.89 69.22 70.02 67.58 70.89 67.89 69.05 66.56 67.76 68.4 67.49 69.22 65.82"/><path class="cls-5" d="M70.87,71.37a.48.48,0,0,1-.22-.06l-1.42-.75-1.42.75a.48.48,0,0,1-.7-.51l.27-1.58L66.22,68.1a.48.48,0,0,1,.27-.82l1.59-.23.71-1.44a.5.5,0,0,1,.86,0l.71,1.44,1.59.23a.48.48,0,0,1,.27.82l-1.15,1.12.27,1.58a.48.48,0,0,1-.47.56Zm-1.65-1.83a.48.48,0,0,1,.22.06l.79.41-.15-.87a.48.48,0,0,1,.14-.42l.64-.62L70,68a.48.48,0,0,1-.36-.26l-.39-.8-.39.8a.48.48,0,0,1-.36.26l-.88.13.64.62a.48.48,0,0,1,.14.42l-.15.87L69,69.6A.48.48,0,0,1,69.22,69.54Z"/><text class="cls-6" transform="translate(76.17 70.89)">즐겨찾기</text><rect class="cls-4" x="8.58" y="84.18" width="148.89" height="84.52"/><rect class="cls-7" x="8.58" y="84.18" width="148.89" height="84.52"/><line class="cls-8" x1="25.99" y1="159.49" x2="151.85" y2="159.53"/><line class="cls-8" x1="25.99" y1="147.65" x2="151.85" y2="147.69"/><line class="cls-8" x1="26" y1="135.81" x2="151.86" y2="135.85"/><line class="cls-8" x1="26" y1="123.98" x2="151.86" y2="124.01"/><line class="cls-8" x1="26" y1="112.14" x2="151.86" y2="112.17"/><line class="cls-8" x1="26.01" y1="100.3" x2="151.87" y2="100.34"/><rect class="cls-9" x="35.14" y="149.43" width="3.21" height="9.91"/><rect class="cls-9" x="54.75" y="127.81" width="3.21" height="31.54"/><rect class="cls-9" x="74.35" y="142.76" width="3.21" height="16.6"/><rect class="cls-9" x="103.76" y="140.82" width="3.21" height="18.54"/><rect class="cls-9" x="123.37" y="141.53" width="3.21" height="17.83"/><rect class="cls-9" x="142.97" y="150.53" width="3.21" height="8.84"/><rect class="cls-9" x="44.95" y="136.13" width="3.21" height="23.22"/><rect class="cls-9" x="64.55" y="149.44" width="3.21" height="9.91"/><rect class="cls-9" x="93.96" y="118.13" width="3.21" height="41.22"/><rect class="cls-9" x="113.56" y="131.35" width="3.21" height="28.01"/><rect class="cls-9" x="133.17" y="149.2" width="3.21" height="10.17"/><rect class="cls-9" x="84.15" y="131.86" width="3.21" height="27.49"/><rect class="cls-10" x="31.85" y="146.96" width="3.21" height="12.38" transform="translate(66.87 306.31) rotate(-179.98)"/><rect class="cls-10" x="41.66" y="128.85" width="3.21" height="30.5" transform="translate(86.49 288.2) rotate(-179.99)"/><rect class="cls-10" x="51.46" y="132.86" width="3.21" height="26.49" transform="translate(106.11 292.21) rotate(-179.99)"/><rect class="cls-10" x="61.26" y="133.25" width="3.21" height="26.1" transform="matrix(-1, 0, 0, -1, 125.7, 292.62)"/><rect class="cls-10" x="71.06" y="128.12" width="3.21" height="31.24" transform="matrix(-1, 0, 0, -1, 145.3, 287.49)"/><rect class="cls-10" x="90.66" y="123.71" width="3.21" height="35.65" transform="translate(184.45 283.13) rotate(-179.96)"/><rect class="cls-10" x="110.27" y="133.98" width="3.21" height="25.38" transform="translate(223.72 293.37) rotate(-179.99)"/><rect class="cls-10" x="129.87" y="144.1" width="3.21" height="15.27" transform="translate(262.92 303.5) rotate(-179.98)"/><rect class="cls-10" x="80.86" y="117.04" width="3.21" height="42.31" transform="translate(164.86 276.43) rotate(-179.97)"/><rect class="cls-10" x="100.47" y="135.83" width="3.21" height="23.53" transform="matrix(-1, 0, 0, -1, 204.11, 295.22)"/><rect class="cls-10" x="120.07" y="139.06" width="3.21" height="20.3" transform="translate(243.33 298.45) rotate(-179.99)"/><rect class="cls-10" x="139.68" y="148.78" width="3.21" height="10.59" transform="translate(282.52 308.19) rotate(-179.98)"/><rect class="cls-11" x="14.23" y="98.96" width="10.8" height="2.68" rx="1.34" ry="1.34"/><rect class="cls-11" x="14.23" y="110.8" width="10.8" height="2.68" rx="1.34" ry="1.34"/><rect class="cls-11" x="14.22" y="122.63" width="10.8" height="2.68" rx="1.34" ry="1.34"/><rect class="cls-11" x="14.22" y="134.8" width="10.8" height="2.68" rx="1.34" ry="1.34"/><rect class="cls-11" x="14.22" y="146.1" width="10.8" height="2.68" rx="1.34" ry="1.34"/><rect class="cls-11" x="14.21" y="158" width="10.8" height="2.68" rx="1.34" ry="1.34"/><rect class="cls-12" x="70.9" y="89.08" width="8.4" height="1.8" rx="0.9" ry="0.9"/><rect class="cls-10" x="88.52" y="89.09" width="8.4" height="1.8" rx="0.9" ry="0.9"/><rect class="cls-14" x="74.93" y="37.65" width="20.74" height="17.23" rx="1.82" ry="1.82"/><path class="cls-10" d="M94.22,33.51a.58.58,0,0,0-.46-.23h-17a.58.58,0,0,0-.46.23l-3.6,4.65A2.37,2.37,0,0,0,74.49,42h0a2.68,2.68,0,0,0,2.23-1.19.55.55,0,0,1,.91,0,2.69,2.69,0,0,0,4.47,0,.55.55,0,0,1,.91,0,2.69,2.69,0,0,0,4.47,0,.55.55,0,0,1,.91,0,2.69,2.69,0,0,0,4.47,0,.55.55,0,0,1,.91,0A2.68,2.68,0,0,0,96,42h0a2.35,2.35,0,0,0,1.84-3.78Z"/><circle class="cls-16" cx="85.3" cy="33.29" r="5.37"/><path class="cls-4" d="M84,31.13h1.69Q87,31.13,87,32.2v.13a1.15,1.15,0,0,1,0,.28.76.76,0,0,1-.33.46,1,1,0,0,1-.33.14,1.14,1.14,0,0,1,.64.3.92.92,0,0,1,.24.69v.15a1.08,1.08,0,0,1-.34.84,1.53,1.53,0,0,1-1,.31H84Zm.77.64v1.14h1a.83.83,0,0,0,.3-.07.39.39,0,0,0,.18-.17.65.65,0,0,0,.06-.32v-.11a.36.36,0,0,0-.21-.37,1.9,1.9,0,0,0-.7-.09Zm0,3.08h.7l.44,0a.92.92,0,0,0,.31-.08.42.42,0,0,0,.18-.18.66.66,0,0,0,.06-.31v-.13a.62.62,0,0,0-.06-.28.43.43,0,0,0-.19-.18,1,1,0,0,0-.35-.1,4.24,4.24,0,0,0-.52,0h-.59Z"/><path class="cls-4" d="M88.6,51.54V47.81a3.31,3.31,0,1,0-6.62,0v3.72Z"/></g><rect class="cls-2" x="125.34" y="23.23" width="215.42" height="170.51" rx="1.99" ry="1.99"/><path class="cls-3" d="M338.78,23.62a1.59,1.59,0,0,1,1.59,1.59V191.74a1.59,1.59,0,0,1-1.59,1.59H127.33a1.59,1.59,0,0,1-1.59-1.59V25.21a1.59,1.59,0,0,1,1.59-1.59H338.78m0-.79H127.33a2.39,2.39,0,0,0-2.38,2.38V191.74a2.39,2.39,0,0,0,2.38,2.38H338.78a2.39,2.39,0,0,0,2.38-2.38V25.21a2.39,2.39,0,0,0-2.38-2.38Z"/><rect class="cls-10" x="204.96" y="39.75" width="56.19" height="17.11" rx="8.55" ry="8.55"/><polygon class="cls-4" points="215.57 45.09 216.61 47.21 218.94 47.55 217.25 49.19 217.65 51.51 215.57 50.42 213.48 51.51 213.88 49.19 212.19 47.55 214.52 47.21 215.57 45.09"/><path class="cls-4" d="M213.48,52.12a.61.61,0,0,1-.6-.71l.34-2L211.77,48a.61.61,0,0,1,.34-1l2-.29.9-1.83a.61.61,0,0,1,.55-.34h0a.61.61,0,0,1,.55.34l.9,1.83,2,.29a.61.61,0,0,1,.34,1l-1.46,1.42.34,2a.61.61,0,0,1-.88.64l-1.8-.95-1.8.95A.61.61,0,0,1,213.48,52.12Zm2.09-2.31a.6.6,0,0,1,.28.07l1,.52-.19-1.11a.61.61,0,0,1,.17-.54l.81-.78-1.11-.16a.61.61,0,0,1-.46-.33l-.5-1-.5,1a.61.61,0,0,1-.46.33L213.5,48l.81.79a.61.61,0,0,1,.17.54l-.19,1.11,1-.52A.6.6,0,0,1,215.57,49.81Z"/><text class="cls-17" transform="translate(224.38 51.51)">즐겨찾기</text><rect class="cls-4" x="138.7" y="69.35" width="188.71" height="107.13"/><rect class="cls-18" x="138.7" y="69.35" width="188.71" height="107.13"/><line class="cls-19" x1="160.77" y1="164.8" x2="320.3" y2="164.85"/><line class="cls-19" x1="160.78" y1="149.8" x2="320.3" y2="149.84"/><line class="cls-19" x1="160.78" y1="134.79" x2="320.3" y2="134.84"/><line class="cls-19" x1="160.79" y1="119.79" x2="320.31" y2="119.83"/><line class="cls-19" x1="160.79" y1="104.78" x2="320.31" y2="104.83"/><line class="cls-19" x1="160.79" y1="89.78" x2="320.32" y2="89.83"/><rect class="cls-9" x="172.38" y="143.99" width="4.07" height="20.62"/><rect class="cls-9" x="197.22" y="139.57" width="4.07" height="25.06"/><rect class="cls-9" x="222.07" y="154.01" width="4.07" height="10.62"/><rect class="cls-9" x="259.35" y="137.54" width="4.07" height="27.1"/><rect class="cls-9" x="284.19" y="131.49" width="4.07" height="33.15"/><rect class="cls-9" x="309.04" y="140.38" width="4.07" height="24.27"/><rect class="cls-9" x="184.8" y="137.52" width="4.07" height="27.1"/><rect class="cls-9" x="209.65" y="144" width="4.07" height="20.62"/><rect class="cls-9" x="246.92" y="148.98" width="4.07" height="15.66"/><rect class="cls-9" x="271.77" y="144.02" width="4.07" height="20.62"/><rect class="cls-9" x="296.62" y="149.85" width="4.07" height="14.79"/><rect class="cls-9" x="234.5" y="149.84" width="4.07" height="14.79"/><rect class="cls-10" x="168.2" y="133.21" width="4.07" height="31.4" transform="translate(340.44 297.87) rotate(-179.99)"/><rect class="cls-10" x="180.63" y="110.25" width="4.07" height="54.36" transform="translate(365.3 274.92) rotate(-179.99)"/><rect class="cls-10" x="193.05" y="113.77" width="4.07" height="50.85" transform="translate(390.15 278.44) rotate(-179.99)"/><rect class="cls-10" x="205.48" y="95.45" width="4.07" height="69.18" transform="translate(415.01 260.12) rotate(-179.99)"/><rect class="cls-10" x="217.9" y="107.66" width="4.07" height="56.97" transform="translate(439.85 272.34) rotate(-179.99)"/><rect class="cls-10" x="242.75" y="126.25" width="4.07" height="38.38" transform="translate(489.54 290.94) rotate(-179.99)"/><rect class="cls-10" x="267.6" y="117.32" width="4.07" height="47.32" transform="translate(539.24 282.03) rotate(-179.99)"/><rect class="cls-10" x="292.45" y="103.97" width="4.07" height="60.67" transform="translate(588.94 268.69) rotate(-179.99)"/><rect class="cls-10" x="230.33" y="117.47" width="4.07" height="47.16" transform="translate(464.69 282.15) rotate(-179.99)"/><rect class="cls-10" x="255.18" y="108.1" width="4.07" height="56.54" transform="translate(514.39 272.8) rotate(-179.99)"/><rect class="cls-10" x="280.03" y="97.44" width="4.07" height="67.2" transform="translate(564.09 262.15) rotate(-179.99)"/><rect class="cls-10" x="304.87" y="118.9" width="4.07" height="45.75" transform="translate(613.78 283.62) rotate(-179.99)"/><rect class="cls-11" x="145.87" y="88.08" width="13.68" height="3.39" rx="1.7" ry="1.7"/><rect class="cls-11" x="145.86" y="103.08" width="13.68" height="3.39" rx="1.7" ry="1.7"/><rect class="cls-11" x="145.86" y="118.09" width="13.68" height="3.39" rx="1.7" ry="1.7"/><rect class="cls-11" x="145.86" y="133.5" width="13.68" height="3.39" rx="1.7" ry="1.7"/><rect class="cls-11" x="145.85" y="147.83" width="13.68" height="3.39" rx="1.7" ry="1.7"/><rect class="cls-11" x="145.85" y="162.91" width="13.68" height="3.39" rx="1.7" ry="1.7"/><rect class="cls-12" x="217.69" y="75.56" width="10.64" height="2.28" rx="1.14" ry="1.14"/><rect class="cls-10" x="240.03" y="75.57" width="10.64" height="2.28" rx="1.14" ry="1.14"/><rect class="cls-10" x="221.54" y="10.8" width="23.03" height="19.13" rx="2.02" ry="2.02"/><path class="cls-14" d="M243,6.22a.65.65,0,0,0-.51-.25H223.62a.65.65,0,0,0-.51.25l-4,5.16a2.64,2.64,0,0,0,1.94,4.27h0a3,3,0,0,0,2.48-1.33.61.61,0,0,1,1,0,3,3,0,0,0,5,0,.61.61,0,0,1,1,0,3,3,0,0,0,5,0,.61.61,0,0,1,1,0,3,3,0,0,0,5,0,.61.61,0,0,1,1,0A3,3,0,0,0,245,15.64h0a2.61,2.61,0,0,0,2-4.2Z"/><circle class="cls-20" cx="233.05" cy="5.97" r="5.97"/><path class="cls-4" d="M235.25,8.41h-.93l-.47-1.33h-1.63l-.48,1.33h-.88l1.8-4.84h.77Zm-2.78-2h1.13l-.33-1c-.06-.16-.1-.3-.14-.41l-.1-.34-.05.18-.05.16-.06.18-.08.22Z"/><path class="cls-4" d="M236.73,26.23V22.09a3.67,3.67,0,0,0-7.35,0v4.14Z"/></g></g></svg>