<svg xmlns="http://www.w3.org/2000/svg" width="460" height="329" viewBox="0 0 516.98 369.42"><defs><style>.cls-1,.cls-6{fill:#fff;}.cls-2{fill:#e4e4ea;}.cls-3{font-size:10.24px;font-family:NanumSquareEB, NanumSquare;letter-spacing:-0.05em;}.cls-10,.cls-3{fill:#2c1f7c;}.cls-3,.cls-4{font-weight:700;}.cls-4{font-size:11.17px;font-family:SpoqaHanSans-Bold, SpoqaHanSans;letter-spacing:-0.03em;}.cls-14,.cls-4{fill:#a4a4c1;}.cls-5{fill:#3d34b7;}.cls-6{stroke:#e4e4ea;stroke-miterlimit:10;stroke-width:0.93px;}.cls-7{fill:#fafafa;}.cls-8{fill:#b3cef4;}.cls-9{fill:#6999f9;}.cls-11{fill:#4529e5;}.cls-12{fill:#5160ed;}.cls-13{fill:#8bacef;}.cls-14{font-size:12px;font-family:SpoqaHanSans-Regular, SpoqaHanSans;letter-spacing:-0.02em;}</style></defs><title>자산 6</title><g id="레이어_2" data-name="레이어 2"><g id="레이어_1-2" data-name="레이어 1"><rect class="cls-1" x="0.47" y="49.77" width="252.66" height="319.19" rx="3.43" ry="3.43"/><path class="cls-2" d="M249.7,50.23a3,3,0,0,1,3,3V365.53a3,3,0,0,1-3,3H3.89a3,3,0,0,1-3-3V53.2a3,3,0,0,1,3-3H249.7m0-.93H3.89A3.9,3.9,0,0,0,0,53.2V365.53a3.9,3.9,0,0,0,3.89,3.89H249.7a3.9,3.9,0,0,0,3.89-3.89V53.2a3.9,3.9,0,0,0-3.89-3.89Z"/><circle class="cls-2" cx="35.36" cy="89.75" r="8.38"/><text class="cls-3" transform="translate(31.71 93.66)">1</text><circle class="cls-2" cx="35.36" cy="170.15" r="8.38"/><text class="cls-3" transform="translate(32.4 173.7)">2</text><circle class="cls-2" cx="35.3" cy="250.55" r="8.38"/><text class="cls-3" transform="translate(32.35 254.11)">3</text><circle class="cls-2" cx="35.36" cy="330.95" r="8.38"/><text class="cls-3" transform="translate(32.4 334.51)">4</text><text class="cls-4" transform="translate(148.55 89.55)">가맹점3</text><path class="cls-2" d="M209.25,101a.71.71,0,0,0-.58-.48l-2.36-.34L205.26,98A.71.71,0,0,0,204,98l-1.06,2.14-2.36.34a.71.71,0,0,0-.39,1.21l1.71,1.66-.4,2.35a.71.71,0,0,0,1,.75l2.11-1.11,2.11,1.11a.71.71,0,0,0,1-.75l-.4-2.35,1.71-1.66A.71.71,0,0,0,209.25,101Z"/><path class="cls-5" d="M159.75,101a.71.71,0,0,0-.58-.48l-2.36-.34L155.76,98a.71.71,0,0,0-1.28,0l-1.06,2.14-2.36.34a.71.71,0,0,0-.39,1.21l1.71,1.66-.4,2.35a.71.71,0,0,0,1,.75l2.11-1.11,2.11,1.11a.71.71,0,0,0,1-.75l-.4-2.35,1.71-1.66A.71.71,0,0,0,159.75,101Z"/><path class="cls-5" d="M172.13,101a.71.71,0,0,0-.58-.48l-2.36-.34L168.13,98a.71.71,0,0,0-1.28,0l-1.06,2.14-2.36.34a.71.71,0,0,0-.39,1.21l1.71,1.66-.4,2.35a.71.71,0,0,0,1,.75l2.11-1.11,2.11,1.11a.71.71,0,0,0,1-.75l-.4-2.35,1.71-1.66A.71.71,0,0,0,172.13,101Z"/><path class="cls-5" d="M184.5,101a.71.71,0,0,0-.58-.48l-2.36-.34L180.51,98a.71.71,0,0,0-1.28,0l-1.06,2.14-2.36.34a.71.71,0,0,0-.39,1.21l1.71,1.66-.4,2.35a.71.71,0,0,0,1,.75l2.11-1.11,2.11,1.11a.71.71,0,0,0,1-.75l-.4-2.35,1.71-1.66A.71.71,0,0,0,184.5,101Z"/><path class="cls-5" d="M196.88,101a.71.71,0,0,0-.58-.48l-2.36-.34L192.88,98a.71.71,0,0,0-1.28,0l-1.06,2.14-2.36.34a.71.71,0,0,0-.39,1.21l1.71,1.66-.4,2.35a.71.71,0,0,0,1,.75l2.11-1.11,2.11,1.11a.71.71,0,0,0,1-.75l-.4-2.35,1.71-1.66A.71.71,0,0,0,196.88,101Z"/><text class="cls-4" transform="translate(148.55 168.78)">가맹점1</text><path class="cls-2" d="M209.25,179.88a.71.71,0,0,0-.58-.48l-2.36-.34-1.06-2.14a.71.71,0,0,0-1.28,0l-1.06,2.14-2.36.34a.71.71,0,0,0-.39,1.21l1.71,1.66-.4,2.35a.71.71,0,0,0,1,.75l2.11-1.11,2.11,1.11a.71.71,0,0,0,1-.75l-.4-2.35,1.71-1.66A.71.71,0,0,0,209.25,179.88Z"/><path class="cls-5" d="M159.75,179.88a.71.71,0,0,0-.58-.48l-2.36-.34-1.06-2.14a.71.71,0,0,0-1.28,0l-1.06,2.14-2.36.34a.71.71,0,0,0-.39,1.21l1.71,1.66-.4,2.35a.71.71,0,0,0,1,.75l2.11-1.11,2.11,1.11a.71.71,0,0,0,1-.75l-.4-2.35,1.71-1.66A.71.71,0,0,0,159.75,179.88Z"/><path class="cls-5" d="M172.13,179.88a.71.71,0,0,0-.58-.48l-2.36-.34-1.06-2.14a.71.71,0,0,0-1.28,0l-1.06,2.14-2.36.34a.71.71,0,0,0-.39,1.21l1.71,1.66-.4,2.35a.71.71,0,0,0,1,.75l2.11-1.11,2.11,1.11a.71.71,0,0,0,1-.75l-.4-2.35,1.71-1.66A.71.71,0,0,0,172.13,179.88Z"/><path class="cls-2" d="M184.5,179.88a.71.71,0,0,0-.58-.48l-2.36-.34-1.06-2.14a.71.71,0,0,0-1.28,0l-1.06,2.14-2.36.34a.71.71,0,0,0-.39,1.21l1.71,1.66-.4,2.35a.71.71,0,0,0,1,.75l2.11-1.11,2.11,1.11a.71.71,0,0,0,1-.75l-.4-2.35,1.71-1.66A.71.71,0,0,0,184.5,179.88Z"/><path class="cls-2" d="M196.88,179.88a.71.71,0,0,0-.58-.48l-2.36-.34-1.06-2.14a.71.71,0,0,0-1.28,0l-1.06,2.14-2.36.34a.71.71,0,0,0-.39,1.21l1.71,1.66-.4,2.35a.71.71,0,0,0,1,.75l2.11-1.11,2.11,1.11a.71.71,0,0,0,1-.75l-.4-2.35,1.71-1.66A.71.71,0,0,0,196.88,179.88Z"/><text class="cls-4" transform="translate(148.49 248)">가맹점4</text><path class="cls-5" d="M209.31,258.81a.71.71,0,0,0-.58-.48l-2.36-.34-1.06-2.14a.71.71,0,0,0-1.28,0L203,258l-2.36.34a.71.71,0,0,0-.39,1.21l1.71,1.66-.4,2.35a.71.71,0,0,0,1,.75l2.11-1.11,2.11,1.11a.71.71,0,0,0,1-.75l-.4-2.35,1.71-1.66A.71.71,0,0,0,209.31,258.81Z"/><path class="cls-5" d="M159.81,258.81a.71.71,0,0,0-.58-.48l-2.36-.34-1.06-2.14a.71.71,0,0,0-1.28,0L153.48,258l-2.36.34a.71.71,0,0,0-.39,1.21l1.71,1.66-.4,2.35a.71.71,0,0,0,1,.75l2.11-1.11,2.11,1.11a.71.71,0,0,0,1-.75l-.4-2.35,1.71-1.66A.71.71,0,0,0,159.81,258.81Z"/><path class="cls-5" d="M172.18,258.81a.71.71,0,0,0-.58-.48l-2.36-.34-1.06-2.14a.71.71,0,0,0-1.28,0L165.86,258l-2.36.34a.71.71,0,0,0-.39,1.21l1.71,1.66-.4,2.35a.71.71,0,0,0,1,.75l2.11-1.11,2.11,1.11a.71.71,0,0,0,1-.75l-.4-2.35,1.71-1.66A.71.71,0,0,0,172.18,258.81Z"/><path class="cls-5" d="M184.56,258.81a.71.71,0,0,0-.58-.48l-2.36-.34-1.06-2.14a.71.71,0,0,0-1.28,0L178.23,258l-2.36.34a.71.71,0,0,0-.39,1.21l1.71,1.66-.4,2.35a.71.71,0,0,0,1,.75l2.11-1.11L182,264.3a.71.71,0,0,0,1-.75l-.4-2.35,1.71-1.66A.71.71,0,0,0,184.56,258.81Z"/><path class="cls-5" d="M196.93,258.81a.71.71,0,0,0-.58-.48L194,258l-1.06-2.14a.71.71,0,0,0-1.28,0L190.61,258l-2.36.34a.71.71,0,0,0-.39,1.21l1.71,1.66-.4,2.35a.71.71,0,0,0,1,.75l2.11-1.11,2.11,1.11a.71.71,0,0,0,1-.75l-.4-2.35,1.71-1.66A.71.71,0,0,0,196.93,258.81Z"/><text class="cls-4" transform="translate(148.55 327.23)">가맹점2</text><path class="cls-2" d="M209.25,337.73a.71.71,0,0,0-.58-.48l-2.36-.34-1.06-2.14a.71.71,0,0,0-1.28,0l-1.06,2.14-2.36.34a.71.71,0,0,0-.39,1.21l1.71,1.66-.4,2.35a.71.71,0,0,0,1,.75l2.11-1.11,2.11,1.11a.71.71,0,0,0,1-.75l-.4-2.35,1.71-1.66A.71.71,0,0,0,209.25,337.73Z"/><path class="cls-5" d="M159.75,337.73a.71.71,0,0,0-.58-.48l-2.36-.34-1.06-2.14a.71.71,0,0,0-1.28,0l-1.06,2.14-2.36.34a.71.71,0,0,0-.39,1.21l1.71,1.66-.4,2.35a.71.71,0,0,0,1,.75l2.11-1.11,2.11,1.11a.71.71,0,0,0,1-.75l-.4-2.35,1.71-1.66A.71.71,0,0,0,159.75,337.73Z"/><path class="cls-5" d="M172.13,337.73a.71.71,0,0,0-.58-.48l-2.36-.34-1.06-2.14a.71.71,0,0,0-1.28,0l-1.06,2.14-2.36.34a.71.71,0,0,0-.39,1.21l1.71,1.66-.4,2.35a.71.71,0,0,0,1,.75l2.11-1.11,2.11,1.11a.71.71,0,0,0,1-.75l-.4-2.35,1.71-1.66A.71.71,0,0,0,172.13,337.73Z"/><path class="cls-5" d="M184.5,337.73a.71.71,0,0,0-.58-.48l-2.36-.34-1.06-2.14a.71.71,0,0,0-1.28,0l-1.06,2.14-2.36.34a.71.71,0,0,0-.39,1.21l1.71,1.66-.4,2.35a.71.71,0,0,0,1,.75l2.11-1.11,2.11,1.11a.71.71,0,0,0,1-.75l-.4-2.35,1.71-1.66A.71.71,0,0,0,184.5,337.73Z"/><path class="cls-2" d="M196.88,337.73a.71.71,0,0,0-.58-.48l-2.36-.34-1.06-2.14a.71.71,0,0,0-1.28,0l-1.06,2.14-2.36.34a.71.71,0,0,0-.39,1.21l1.71,1.66-.4,2.35a.71.71,0,0,0,1,.75l2.11-1.11,2.11,1.11a.71.71,0,0,0,1-.75l-.4-2.35,1.71-1.66A.71.71,0,0,0,196.88,337.73Z"/><line class="cls-6" x1="0.93" y1="129.62" x2="252.67" y2="129.62"/><line class="cls-6" x1="0.93" y1="209.36" x2="252.67" y2="209.36"/><line class="cls-6" x1="0.93" y1="289.11" x2="252.67" y2="289.11"/><rect class="cls-7" x="68.74" y="61.36" width="56.77" height="56.76" rx="3.26" ry="3.26"/><path class="cls-2" d="M122.25,61.83A2.79,2.79,0,0,1,125,64.62v50.25a2.79,2.79,0,0,1-2.79,2.79H72a2.79,2.79,0,0,1-2.79-2.79V64.62A2.79,2.79,0,0,1,72,61.83h50.25m0-.93H72a3.73,3.73,0,0,0-3.72,3.72v50.25A3.73,3.73,0,0,0,72,118.59h50.25a3.73,3.73,0,0,0,3.72-3.72V64.62a3.73,3.73,0,0,0-3.72-3.72Z"/><rect class="cls-8" x="83.72" y="84.9" width="26.8" height="22.27" rx="2.35" ry="2.35"/><path class="cls-9" d="M108.65,79.56a.75.75,0,0,0-.59-.29H86.14a.75.75,0,0,0-.59.29l-4.65,6a3.07,3.07,0,0,0,2.26,5h.06A3.47,3.47,0,0,0,86.1,89a.71.71,0,0,1,1.17,0A3.47,3.47,0,0,0,93,89a.71.71,0,0,1,1.17,0A3.47,3.47,0,0,0,100,89a.71.71,0,0,1,1.17,0,3.47,3.47,0,0,0,5.77,0,.71.71,0,0,1,1.17,0A3.47,3.47,0,0,0,111,90.53h0a3,3,0,0,0,2.37-4.89Z"/><circle class="cls-10" cx="97.12" cy="79.27" r="6.94"/><path class="cls-1" d="M97.26,76.4a3.58,3.58,0,0,1,1.05.14,2.66,2.66,0,0,1,.88.48l-.54.77a1.8,1.8,0,0,0-.68-.38,2.76,2.76,0,0,0-.72-.09,1.65,1.65,0,0,0-.49.07,1,1,0,0,0-.43.27,1.43,1.43,0,0,0-.3.53,2.65,2.65,0,0,0-.12.86v.58a2.32,2.32,0,0,0,.11.76,1.38,1.38,0,0,0,.29.51,1.1,1.1,0,0,0,.43.29,1.43,1.43,0,0,0,.51.09,2.81,2.81,0,0,0,.8-.12,1.71,1.71,0,0,0,.75-.46l.53.77a2.14,2.14,0,0,1-.53.39,3.25,3.25,0,0,1-.55.23,2.74,2.74,0,0,1-.54.11l-.5,0a2.9,2.9,0,0,1-.88-.13,1.94,1.94,0,0,1-.73-.42,2.06,2.06,0,0,1-.5-.73,2.78,2.78,0,0,1-.19-1.08v-1a2.9,2.9,0,0,1,.18-1.09,2.1,2.1,0,0,1,.5-.76,2,2,0,0,1,.75-.44A2.91,2.91,0,0,1,97.26,76.4Z"/><path class="cls-1" d="M101.4,102.85V98a4.28,4.28,0,0,0-8.55,0v4.81Z"/><rect class="cls-7" x="68.74" y="141.5" width="56.77" height="56.76" rx="3.26" ry="3.26"/><path class="cls-2" d="M122.25,142a2.79,2.79,0,0,1,2.79,2.79V195a2.79,2.79,0,0,1-2.79,2.79H72A2.79,2.79,0,0,1,69.21,195V144.76A2.79,2.79,0,0,1,72,142h50.25m0-.93H72a3.73,3.73,0,0,0-3.72,3.72V195A3.73,3.73,0,0,0,72,198.74h50.25A3.73,3.73,0,0,0,126,195V144.76a3.73,3.73,0,0,0-3.72-3.72Z"/><rect class="cls-5" x="83.72" y="165.04" width="26.8" height="22.27" rx="2.35" ry="2.35"/><path class="cls-9" d="M108.65,159.7a.75.75,0,0,0-.59-.29H86.14a.75.75,0,0,0-.59.29l-4.65,6a3.07,3.07,0,0,0,2.26,5h.06a3.47,3.47,0,0,0,2.89-1.54.71.71,0,0,1,1.17,0,3.47,3.47,0,0,0,5.77,0,.71.71,0,0,1,1.17,0,3.47,3.47,0,0,0,5.77,0,.71.71,0,0,1,1.17,0,3.47,3.47,0,0,0,5.77,0,.71.71,0,0,1,1.17,0,3.47,3.47,0,0,0,2.89,1.54h0a3,3,0,0,0,2.37-4.89Z"/><circle class="cls-11" cx="97.12" cy="159.41" r="6.94"/><path class="cls-1" d="M99.68,162.26H98.59L98,160.71h-1.9l-.55,1.55h-1l2.09-5.63h.9Zm-3.24-2.38h1.32l-.38-1.15c-.07-.19-.12-.34-.16-.47l-.12-.39-.06.21-.06.19-.07.21-.09.26Z"/><path class="cls-1" d="M101.4,183v-4.81a4.28,4.28,0,0,0-8.55,0V183Z"/><rect class="cls-7" x="68.69" y="221.65" width="56.77" height="56.76" rx="3.26" ry="3.26"/><path class="cls-2" d="M122.19,222.11A2.79,2.79,0,0,1,125,224.9v50.25a2.79,2.79,0,0,1-2.79,2.79H71.94a2.79,2.79,0,0,1-2.79-2.79V224.9a2.79,2.79,0,0,1,2.79-2.79h50.25m0-.93H71.94a3.73,3.73,0,0,0-3.72,3.72v50.25a3.73,3.73,0,0,0,3.72,3.72h50.25a3.73,3.73,0,0,0,3.72-3.72V224.9a3.73,3.73,0,0,0-3.72-3.72Z"/><rect class="cls-10" x="83.67" y="245.18" width="26.8" height="22.27" rx="2.35" ry="2.35"/><path class="cls-8" d="M108.6,239.84a.75.75,0,0,0-.59-.29H86.09a.75.75,0,0,0-.59.29l-4.65,6a3.07,3.07,0,0,0,2.26,5h.06A3.47,3.47,0,0,0,86,249.27a.71.71,0,0,1,1.17,0,3.47,3.47,0,0,0,5.77,0,.71.71,0,0,1,1.17,0,3.47,3.47,0,0,0,5.77,0,.71.71,0,0,1,1.17,0,3.47,3.47,0,0,0,5.77,0,.71.71,0,0,1,1.17,0,3.47,3.47,0,0,0,2.89,1.54h0a3,3,0,0,0,2.37-4.89Z"/><circle class="cls-12" cx="97.07" cy="239.55" r="6.94"/><path class="cls-1" d="M97.12,236.77a2.46,2.46,0,0,1,1.85.62,2.49,2.49,0,0,1,.59,1.79v.8a3.68,3.68,0,0,1-.13,1,1.8,1.8,0,0,1-.43.75,1.88,1.88,0,0,1-.75.46,3.43,3.43,0,0,1-1.12.16h-2v-5.63Zm-1,4.79H97a2.36,2.36,0,0,0,.67-.09,1.13,1.13,0,0,0,.8-.77,2.35,2.35,0,0,0,.11-.75v-.73a1.63,1.63,0,0,0-.39-1.25,1.69,1.69,0,0,0-1.18-.36h-.84Z"/><path class="cls-1" d="M101.34,263.13v-4.81a4.28,4.28,0,1,0-8.55,0v4.81Z"/><rect class="cls-7" x="68.74" y="301.79" width="56.77" height="56.76" rx="3.26" ry="3.26"/><path class="cls-2" d="M122.25,302.25A2.79,2.79,0,0,1,125,305V355.3a2.79,2.79,0,0,1-2.79,2.79H72a2.79,2.79,0,0,1-2.79-2.79V305A2.79,2.79,0,0,1,72,302.25h50.25m0-.93H72A3.73,3.73,0,0,0,68.28,305V355.3A3.73,3.73,0,0,0,72,359h50.25A3.73,3.73,0,0,0,126,355.3V305a3.73,3.73,0,0,0-3.72-3.72Z"/><rect class="cls-9" x="83.72" y="325.32" width="26.8" height="22.27" rx="2.35" ry="2.35"/><path class="cls-5" d="M108.65,320a.75.75,0,0,0-.59-.29H86.14a.75.75,0,0,0-.59.29l-4.65,6a3.07,3.07,0,0,0,2.26,5h.06a3.47,3.47,0,0,0,2.89-1.54.71.71,0,0,1,1.17,0,3.47,3.47,0,0,0,5.77,0,.71.71,0,0,1,1.17,0,3.47,3.47,0,0,0,5.77,0,.71.71,0,0,1,1.17,0,3.47,3.47,0,0,0,5.77,0,.71.71,0,0,1,1.17,0A3.47,3.47,0,0,0,111,331h0a3,3,0,0,0,2.37-4.89Z"/><circle class="cls-13" cx="97.12" cy="319.69" r="6.94"/><path class="cls-1" d="M95.41,316.91H97.6q1.77,0,1.77,1.37v.16a1.49,1.49,0,0,1,0,.36,1,1,0,0,1-.43.59,1.35,1.35,0,0,1-.42.18,1.48,1.48,0,0,1,.83.39,1.19,1.19,0,0,1,.32.89v.2a1.4,1.4,0,0,1-.44,1.09,2,2,0,0,1-1.35.39H95.41Zm1,.83v1.47h.73l.52,0a1.08,1.08,0,0,0,.38-.09.5.5,0,0,0,.23-.21.84.84,0,0,0,.08-.41v-.14a.47.47,0,0,0-.28-.48,2.45,2.45,0,0,0-.91-.12Zm0,4h.91a5.44,5.44,0,0,0,.57,0,1.19,1.19,0,0,0,.41-.11.54.54,0,0,0,.24-.23.86.86,0,0,0,.08-.4v-.17a.8.8,0,0,0-.07-.36.55.55,0,0,0-.25-.23,1.34,1.34,0,0,0-.45-.12,5.48,5.48,0,0,0-.68,0H96.4Z"/><path class="cls-1" d="M101.4,343.27v-4.81a4.28,4.28,0,0,0-8.55,0v4.81Z"/><rect class="cls-7" x="96.44" y="0.35" width="60.71" height="32.71" rx="3.35" ry="3.35"/><path class="cls-2" d="M153.8.71a3,3,0,0,1,3,3v26a3,3,0,0,1-3,3h-54a3,3,0,0,1-3-3v-26a3,3,0,0,1,3-3h54m0-.71h-54a3.71,3.71,0,0,0-3.71,3.71v26a3.71,3.71,0,0,0,3.71,3.71h54a3.71,3.71,0,0,0,3.71-3.71v-26A3.71,3.71,0,0,0,153.8,0Z"/><text class="cls-14" transform="translate(116.06 21.47)">상품</text><rect class="cls-1" x="263.85" y="49.77" width="252.67" height="319.19" rx="3.43" ry="3.43"/><path class="cls-2" d="M513.09,50.23a3,3,0,0,1,3,3V365.53a3,3,0,0,1-3,3H267.28a3,3,0,0,1-3-3V53.2a3,3,0,0,1,3-3H513.09m0-.93H267.28a3.9,3.9,0,0,0-3.89,3.89V365.53a3.9,3.9,0,0,0,3.89,3.89H513.09a3.9,3.9,0,0,0,3.89-3.89V53.2a3.9,3.9,0,0,0-3.89-3.89Z"/><circle class="cls-2" cx="298.74" cy="89.75" r="8.38"/><text class="cls-3" transform="translate(295.1 93.66)">1</text><circle class="cls-2" cx="298.74" cy="170.15" r="8.38"/><text class="cls-3" transform="translate(295.79 173.7)">2</text><circle class="cls-2" cx="298.69" cy="250.55" r="8.38"/><text class="cls-3" transform="translate(295.73 254.11)">3</text><circle class="cls-2" cx="298.74" cy="330.95" r="8.38"/><text class="cls-3" transform="translate(295.79 334.51)">4</text><text class="cls-4" transform="translate(411.93 89.96)">가맹점1</text><path class="cls-2" d="M472.64,101.07a.71.71,0,0,0-.58-.48l-2.36-.34-1.06-2.14a.71.71,0,0,0-1.28,0l-1.06,2.14-2.36.34a.71.71,0,0,0-.39,1.21l1.71,1.66-.4,2.35a.71.71,0,0,0,1,.75l2.11-1.11,2.11,1.11a.71.71,0,0,0,1-.75l-.4-2.35,1.71-1.66A.71.71,0,0,0,472.64,101.07Z"/><path class="cls-5" d="M423.14,101.07a.71.71,0,0,0-.58-.48l-2.36-.34-1.06-2.14a.71.71,0,0,0-1.28,0l-1.06,2.14-2.36.34a.71.71,0,0,0-.39,1.21l1.71,1.66-.4,2.35a.71.71,0,0,0,1,.75l2.11-1.11,2.11,1.11a.71.71,0,0,0,1-.75l-.4-2.35L423,101.8A.71.71,0,0,0,423.14,101.07Z"/><path class="cls-5" d="M435.51,101.07a.71.71,0,0,0-.58-.48l-2.36-.34-1.06-2.14a.71.71,0,0,0-1.28,0l-1.06,2.14-2.36.34a.71.71,0,0,0-.39,1.21l1.71,1.66-.4,2.35a.71.71,0,0,0,1,.75l2.11-1.11,2.11,1.11a.71.71,0,0,0,1-.75l-.4-2.35,1.71-1.66A.71.71,0,0,0,435.51,101.07Z"/><path class="cls-2" d="M447.89,101.07a.71.71,0,0,0-.58-.48l-2.36-.34-1.06-2.14a.71.71,0,0,0-1.28,0l-1.06,2.14-2.36.34a.71.71,0,0,0-.39,1.21l1.71,1.66-.4,2.35a.71.71,0,0,0,1,.75l2.11-1.11,2.11,1.11a.71.71,0,0,0,1-.75l-.4-2.35,1.71-1.66A.71.71,0,0,0,447.89,101.07Z"/><path class="cls-2" d="M460.26,101.07a.71.71,0,0,0-.58-.48l-2.36-.34-1.06-2.14a.71.71,0,0,0-1.28,0l-1.06,2.14-2.36.34a.71.71,0,0,0-.39,1.21l1.71,1.66-.4,2.35a.71.71,0,0,0,1,.75l2.11-1.11,2.11,1.11a.71.71,0,0,0,1-.75l-.4-2.35,1.71-1.66A.71.71,0,0,0,460.26,101.07Z"/><text class="cls-4" transform="translate(411.88 327.23)">가맹점4</text><path class="cls-5" d="M472.69,338a.71.71,0,0,0-.58-.48l-2.36-.34-1.06-2.14a.71.71,0,0,0-1.28,0l-1.06,2.14-2.36.34a.71.71,0,0,0-.39,1.21l1.71,1.66-.4,2.35a.71.71,0,0,0,1,.75l2.11-1.11,2.11,1.11a.71.71,0,0,0,1-.75l-.4-2.35,1.71-1.66A.71.71,0,0,0,472.69,338Z"/><path class="cls-5" d="M423.19,338a.71.71,0,0,0-.58-.48l-2.36-.34-1.06-2.14a.71.71,0,0,0-1.28,0l-1.06,2.14-2.36.34a.71.71,0,0,0-.39,1.21l1.71,1.66-.4,2.35a.71.71,0,0,0,1,.75l2.11-1.11,2.11,1.11a.71.71,0,0,0,1-.75l-.4-2.35,1.71-1.66A.71.71,0,0,0,423.19,338Z"/><path class="cls-5" d="M435.56,338a.71.71,0,0,0-.58-.48l-2.36-.34-1.06-2.14a.71.71,0,0,0-1.28,0l-1.06,2.14-2.36.34a.71.71,0,0,0-.39,1.21l1.71,1.66-.4,2.35a.71.71,0,0,0,1,.75l2.11-1.11,2.11,1.11a.71.71,0,0,0,1-.75l-.4-2.35,1.71-1.66A.71.71,0,0,0,435.56,338Z"/><path class="cls-5" d="M447.94,338a.71.71,0,0,0-.58-.48L445,337.2l-1.06-2.14a.71.71,0,0,0-1.28,0l-1.06,2.14-2.36.34a.71.71,0,0,0-.39,1.21l1.71,1.66-.4,2.35a.71.71,0,0,0,1,.75l2.11-1.11,2.11,1.11a.71.71,0,0,0,1-.75l-.4-2.35,1.71-1.66A.71.71,0,0,0,447.94,338Z"/><path class="cls-5" d="M460.31,338a.71.71,0,0,0-.58-.48l-2.36-.34-1.06-2.14a.71.71,0,0,0-1.28,0L454,337.2l-2.36.34a.71.71,0,0,0-.39,1.21l1.71,1.66-.4,2.35a.71.71,0,0,0,1,.75l2.11-1.11,2.11,1.11a.71.71,0,0,0,1-.75l-.4-2.35,1.71-1.66A.71.71,0,0,0,460.31,338Z"/><text class="cls-4" transform="translate(411.93 168.42)">가맹점3</text><path class="cls-2" d="M472.64,179.82a.71.71,0,0,0-.58-.48L469.7,179l-1.06-2.14a.71.71,0,0,0-1.28,0L466.31,179l-2.36.34a.71.71,0,0,0-.39,1.21l1.71,1.66-.4,2.35a.71.71,0,0,0,1,.75l2.11-1.11,2.11,1.11a.71.71,0,0,0,1-.75l-.4-2.35,1.71-1.66A.71.71,0,0,0,472.64,179.82Z"/><path class="cls-5" d="M423.14,179.82a.71.71,0,0,0-.58-.48L420.2,179l-1.06-2.14a.71.71,0,0,0-1.28,0L416.81,179l-2.36.34a.71.71,0,0,0-.39,1.21l1.71,1.66-.4,2.35a.71.71,0,0,0,1,.75l2.11-1.11,2.11,1.11a.71.71,0,0,0,1-.75l-.4-2.35,1.71-1.66A.71.71,0,0,0,423.14,179.82Z"/><path class="cls-5" d="M435.51,179.82a.71.71,0,0,0-.58-.48l-2.36-.34-1.06-2.14a.71.71,0,0,0-1.28,0L429.19,179l-2.36.34a.71.71,0,0,0-.39,1.21l1.71,1.66-.4,2.35a.71.71,0,0,0,1,.75l2.11-1.11,2.11,1.11a.71.71,0,0,0,1-.75l-.4-2.35,1.71-1.66A.71.71,0,0,0,435.51,179.82Z"/><path class="cls-5" d="M447.89,179.82a.71.71,0,0,0-.58-.48l-2.36-.34-1.06-2.14a.71.71,0,0,0-1.28,0L441.56,179l-2.36.34a.71.71,0,0,0-.39,1.21l1.71,1.66-.4,2.35a.71.71,0,0,0,1,.75l2.11-1.11,2.11,1.11a.71.71,0,0,0,1-.75l-.4-2.35,1.71-1.66A.71.71,0,0,0,447.89,179.82Z"/><path class="cls-5" d="M460.26,179.82a.71.71,0,0,0-.58-.48l-2.36-.34-1.06-2.14a.71.71,0,0,0-1.28,0L453.94,179l-2.36.34a.71.71,0,0,0-.39,1.21l1.71,1.66-.4,2.35a.71.71,0,0,0,1,.75l2.11-1.11,2.11,1.11a.71.71,0,0,0,1-.75l-.4-2.35,1.71-1.66A.71.71,0,0,0,460.26,179.82Z"/><text class="cls-4" transform="translate(411.93 248.27)">가맹점2</text><path class="cls-2" d="M472.64,258.78a.71.71,0,0,0-.58-.48L469.7,258l-1.06-2.14a.71.71,0,0,0-1.28,0L466.31,258l-2.36.34a.71.71,0,0,0-.39,1.21l1.71,1.66-.4,2.35a.71.71,0,0,0,1,.75l2.11-1.11,2.11,1.11a.71.71,0,0,0,1-.75l-.4-2.35,1.71-1.66A.71.71,0,0,0,472.64,258.78Z"/><path class="cls-5" d="M423.14,258.78a.71.71,0,0,0-.58-.48L420.2,258l-1.06-2.14a.71.71,0,0,0-1.28,0L416.81,258l-2.36.34a.71.71,0,0,0-.39,1.21l1.71,1.66-.4,2.35a.71.71,0,0,0,1,.75l2.11-1.11,2.11,1.11a.71.71,0,0,0,1-.75l-.4-2.35,1.71-1.66A.71.71,0,0,0,423.14,258.78Z"/><path class="cls-5" d="M435.51,258.78a.71.71,0,0,0-.58-.48l-2.36-.34-1.06-2.14a.71.71,0,0,0-1.28,0L429.19,258l-2.36.34a.71.71,0,0,0-.39,1.21l1.71,1.66-.4,2.35a.71.71,0,0,0,1,.75l2.11-1.11,2.11,1.11a.71.71,0,0,0,1-.75l-.4-2.35,1.71-1.66A.71.71,0,0,0,435.51,258.78Z"/><path class="cls-5" d="M447.89,258.78a.71.71,0,0,0-.58-.48l-2.36-.34-1.06-2.14a.71.71,0,0,0-1.28,0L441.56,258l-2.36.34a.71.71,0,0,0-.39,1.21l1.71,1.66-.4,2.35a.71.71,0,0,0,1,.75l2.11-1.11,2.11,1.11a.71.71,0,0,0,1-.75l-.4-2.35,1.71-1.66A.71.71,0,0,0,447.89,258.78Z"/><path class="cls-2" d="M460.26,258.78a.71.71,0,0,0-.58-.48l-2.36-.34-1.06-2.14a.71.71,0,0,0-1.28,0L453.94,258l-2.36.34a.71.71,0,0,0-.39,1.21l1.71,1.66-.4,2.35a.71.71,0,0,0,1,.75l2.11-1.11,2.11,1.11a.71.71,0,0,0,1-.75l-.4-2.35,1.71-1.66A.71.71,0,0,0,460.26,258.78Z"/><line class="cls-6" x1="264.31" y1="129.62" x2="516.05" y2="129.62"/><line class="cls-6" x1="264.31" y1="209.36" x2="516.05" y2="209.36"/><line class="cls-6" x1="264.31" y1="289.11" x2="516.05" y2="289.11"/><rect class="cls-7" x="332.22" y="141.5" width="56.76" height="56.76" rx="3.26" ry="3.26"/><path class="cls-2" d="M385.73,142a2.79,2.79,0,0,1,2.79,2.79V195a2.79,2.79,0,0,1-2.79,2.79H335.48a2.79,2.79,0,0,1-2.79-2.79V144.76a2.79,2.79,0,0,1,2.79-2.79h50.25m0-.93H335.48a3.73,3.73,0,0,0-3.72,3.72V195a3.73,3.73,0,0,0,3.72,3.72h50.25a3.73,3.73,0,0,0,3.72-3.72V144.76a3.73,3.73,0,0,0-3.72-3.72Z"/><rect class="cls-8" x="347.21" y="165.04" width="26.8" height="22.27" rx="2.35" ry="2.35"/><path class="cls-9" d="M372.13,159.7a.75.75,0,0,0-.59-.29H349.63a.75.75,0,0,0-.59.29l-4.65,6a3.07,3.07,0,0,0,2.26,5h.06a3.47,3.47,0,0,0,2.89-1.54.71.71,0,0,1,1.17,0,3.47,3.47,0,0,0,5.77,0,.71.71,0,0,1,1.17,0,3.47,3.47,0,0,0,5.77,0,.71.71,0,0,1,1.17,0,3.47,3.47,0,0,0,5.77,0,.71.71,0,0,1,1.17,0,3.47,3.47,0,0,0,2.89,1.54h0a3,3,0,0,0,2.37-4.89Z"/><circle class="cls-10" cx="360.61" cy="159.41" r="6.94"/><path class="cls-1" d="M360.75,156.54a3.58,3.58,0,0,1,1.05.14,2.66,2.66,0,0,1,.88.48l-.54.77a1.8,1.8,0,0,0-.68-.38,2.76,2.76,0,0,0-.72-.09,1.65,1.65,0,0,0-.49.07,1,1,0,0,0-.43.27,1.43,1.43,0,0,0-.3.53,2.65,2.65,0,0,0-.12.86v.58a2.32,2.32,0,0,0,.11.76,1.38,1.38,0,0,0,.29.51,1.1,1.1,0,0,0,.43.29,1.43,1.43,0,0,0,.51.09,2.81,2.81,0,0,0,.8-.12,1.71,1.71,0,0,0,.75-.46l.53.77a2.14,2.14,0,0,1-.53.39,3.25,3.25,0,0,1-.55.23,2.74,2.74,0,0,1-.54.11l-.5,0a2.9,2.9,0,0,1-.88-.13,1.94,1.94,0,0,1-.73-.42,2.06,2.06,0,0,1-.5-.73,2.78,2.78,0,0,1-.19-1.08v-1a2.9,2.9,0,0,1,.18-1.09,2.1,2.1,0,0,1,.5-.76,2,2,0,0,1,.75-.44A2.91,2.91,0,0,1,360.75,156.54Z"/><path class="cls-1" d="M364.88,183v-4.81a4.28,4.28,0,0,0-8.55,0V183Z"/><rect class="cls-7" x="332.22" y="61.36" width="56.76" height="56.76" rx="3.26" ry="3.26"/><path class="cls-2" d="M385.73,61.83a2.79,2.79,0,0,1,2.79,2.79v50.25a2.79,2.79,0,0,1-2.79,2.79H335.48a2.79,2.79,0,0,1-2.79-2.79V64.62a2.79,2.79,0,0,1,2.79-2.79h50.25m0-.93H335.48a3.73,3.73,0,0,0-3.72,3.72v50.25a3.73,3.73,0,0,0,3.72,3.72h50.25a3.73,3.73,0,0,0,3.72-3.72V64.62a3.73,3.73,0,0,0-3.72-3.72Z"/><rect class="cls-5" x="347.21" y="84.9" width="26.8" height="22.27" rx="2.35" ry="2.35"/><path class="cls-9" d="M372.13,79.56a.75.75,0,0,0-.59-.29H349.63a.75.75,0,0,0-.59.29l-4.65,6a3.07,3.07,0,0,0,2.26,5h.06A3.47,3.47,0,0,0,349.58,89a.71.71,0,0,1,1.17,0,3.47,3.47,0,0,0,5.77,0,.71.71,0,0,1,1.17,0,3.47,3.47,0,0,0,5.77,0,.71.71,0,0,1,1.17,0,3.47,3.47,0,0,0,5.77,0,.71.71,0,0,1,1.17,0,3.47,3.47,0,0,0,2.89,1.54h0a3,3,0,0,0,2.37-4.89Z"/><circle class="cls-11" cx="360.61" cy="79.27" r="6.94"/><path class="cls-1" d="M363.16,82.11h-1.08l-.55-1.55h-1.9l-.55,1.55h-1l2.09-5.63h.9Zm-3.24-2.38h1.32l-.38-1.15c-.07-.19-.12-.34-.16-.47l-.12-.39-.06.21-.06.19-.07.21-.09.26Z"/><path class="cls-1" d="M364.88,102.85V98a4.28,4.28,0,1,0-8.55,0v4.81Z"/><rect class="cls-7" x="332.22" y="301.79" width="56.76" height="56.76" rx="3.26" ry="3.26"/><path class="cls-2" d="M385.73,302.25a2.79,2.79,0,0,1,2.79,2.79V355.3a2.79,2.79,0,0,1-2.79,2.79H335.48a2.79,2.79,0,0,1-2.79-2.79V305a2.79,2.79,0,0,1,2.79-2.79h50.25m0-.93H335.48a3.73,3.73,0,0,0-3.72,3.72V355.3a3.73,3.73,0,0,0,3.72,3.72h50.25a3.73,3.73,0,0,0,3.72-3.72V305a3.73,3.73,0,0,0-3.72-3.72Z"/><rect class="cls-10" x="347.21" y="325.32" width="26.8" height="22.27" rx="2.35" ry="2.35"/><path class="cls-8" d="M372.13,320a.75.75,0,0,0-.59-.29H349.63a.75.75,0,0,0-.59.29l-4.65,6a3.07,3.07,0,0,0,2.26,5h.06a3.47,3.47,0,0,0,2.89-1.54.71.71,0,0,1,1.17,0,3.47,3.47,0,0,0,5.77,0,.71.71,0,0,1,1.17,0,3.47,3.47,0,0,0,5.77,0,.71.71,0,0,1,1.17,0,3.47,3.47,0,0,0,5.77,0,.71.71,0,0,1,1.17,0,3.47,3.47,0,0,0,2.89,1.54h0a3,3,0,0,0,2.37-4.89Z"/><circle class="cls-12" cx="360.61" cy="319.69" r="6.94"/><path class="cls-1" d="M360.66,316.91a2.46,2.46,0,0,1,1.85.62,2.49,2.49,0,0,1,.59,1.79v.8a3.68,3.68,0,0,1-.13,1,1.8,1.8,0,0,1-.43.75,1.88,1.88,0,0,1-.75.46,3.43,3.43,0,0,1-1.12.16h-2v-5.63Zm-1,4.79h.84a2.36,2.36,0,0,0,.67-.09,1.13,1.13,0,0,0,.8-.77,2.35,2.35,0,0,0,.11-.75v-.73a1.63,1.63,0,0,0-.39-1.25,1.69,1.69,0,0,0-1.18-.36h-.84Z"/><path class="cls-1" d="M364.88,343.27v-4.81a4.28,4.28,0,0,0-8.55,0v4.81Z"/><rect class="cls-7" x="332.22" y="221.65" width="56.76" height="56.76" rx="3.26" ry="3.26"/><path class="cls-2" d="M385.73,222.11a2.79,2.79,0,0,1,2.79,2.79v50.25a2.79,2.79,0,0,1-2.79,2.79H335.48a2.79,2.79,0,0,1-2.79-2.79V224.9a2.79,2.79,0,0,1,2.79-2.79h50.25m0-.93H335.48a3.73,3.73,0,0,0-3.72,3.72v50.25a3.73,3.73,0,0,0,3.72,3.72h50.25a3.73,3.73,0,0,0,3.72-3.72V224.9a3.73,3.73,0,0,0-3.72-3.72Z"/><rect class="cls-9" x="347.21" y="245.18" width="26.8" height="22.27" rx="2.35" ry="2.35"/><path class="cls-5" d="M372.13,239.84a.75.75,0,0,0-.59-.29H349.63a.75.75,0,0,0-.59.29l-4.65,6a3.07,3.07,0,0,0,2.26,5h.06a3.47,3.47,0,0,0,2.89-1.54.71.71,0,0,1,1.17,0,3.47,3.47,0,0,0,5.77,0,.71.71,0,0,1,1.17,0,3.47,3.47,0,0,0,5.77,0,.71.71,0,0,1,1.17,0,3.47,3.47,0,0,0,5.77,0,.71.71,0,0,1,1.17,0,3.47,3.47,0,0,0,2.89,1.54h0a3,3,0,0,0,2.37-4.89Z"/><circle class="cls-13" cx="360.61" cy="239.55" r="6.94"/><path class="cls-1" d="M358.9,236.77h2.19q1.77,0,1.77,1.37v.16a1.49,1.49,0,0,1,0,.36,1,1,0,0,1-.43.59,1.35,1.35,0,0,1-.42.18,1.48,1.48,0,0,1,.83.39,1.19,1.19,0,0,1,.32.89v.2a1.4,1.4,0,0,1-.44,1.09,2,2,0,0,1-1.35.39H358.9Zm1,.83v1.47h.73l.52,0a1.08,1.08,0,0,0,.38-.09.5.5,0,0,0,.23-.21.84.84,0,0,0,.08-.41v-.14a.47.47,0,0,0-.28-.48,2.45,2.45,0,0,0-.91-.12Zm0,4h.91a5.44,5.44,0,0,0,.57,0,1.19,1.19,0,0,0,.41-.11.54.54,0,0,0,.24-.23.86.86,0,0,0,.08-.4v-.17a.8.8,0,0,0-.07-.36.55.55,0,0,0-.25-.23,1.34,1.34,0,0,0-.45-.12,5.48,5.48,0,0,0-.68,0h-.76Z"/><path class="cls-1" d="M364.88,263.13v-4.81a4.28,4.28,0,1,0-8.55,0v4.81Z"/><rect class="cls-7" x="359.83" y="0.35" width="60.71" height="32.71" rx="3.35" ry="3.35"/><path class="cls-2" d="M417.18.71a3,3,0,0,1,3,3v26a3,3,0,0,1-3,3h-54a3,3,0,0,1-3-3v-26a3,3,0,0,1,3-3h54m0-.71h-54a3.71,3.71,0,0,0-3.71,3.71v26a3.71,3.71,0,0,0,3.71,3.71h54a3.71,3.71,0,0,0,3.71-3.71v-26A3.71,3.71,0,0,0,417.18,0Z"/><text class="cls-14" transform="translate(379.44 21.47)">매출</text></g></g></svg>