<svg xmlns="http://www.w3.org/2000/svg" xmlns:xlink="http://www.w3.org/1999/xlink" width="460" height="307" viewBox="0 0 435.93 290.63"><defs><style>.cls-1{fill:url(#흰색_검정);}.cls-2{fill:url(#흰색_검정-2);}.cls-3{mask:url(#mask);}.cls-4{opacity:0.7;}.cls-5{fill:#fafafa;}.cls-6{fill:#e4e4ea;}.cls-7{font-size:14.59px;letter-spacing:-0.03em;}.cls-12,.cls-7{fill:#a4a4c1;}.cls-12,.cls-20,.cls-7{font-family:SpoqaHanSans-Bold, SpoqaHanSans;}.cls-12,.cls-15,.cls-20,.cls-7{font-weight:700;}.cls-20,.cls-8{fill:#3d34b7;}.cls-9{fill:#6999f9;}.cls-10{fill:#4529e5;}.cls-11,.cls-24{fill:#fff;}.cls-12{font-size:17.79px;letter-spacing:-0.03em;}.cls-13{fill:#b3cef4;}.cls-14,.cls-15{fill:#2c1f7c;}.cls-15{font-size:15.22px;font-family:NanumSquareEB, NanumSquare;letter-spacing:-0.05em;}.cls-16{mask:url(#mask-2);}.cls-17{opacity:0.61;}.cls-18{fill:#eaecef;}.cls-19{opacity:0.8;}.cls-20{font-size:14.83px;letter-spacing:-0.02em;}.cls-21{fill:#8bacef;}.cls-22{fill:none;stroke-width:7px;}.cls-22,.cls-24{stroke:#809bdd;stroke-miterlimit:10;}.cls-23{fill:#809bdd;}</style><linearGradient id="흰색_검정" x1="22.89" y1="129.01" x2="157.68" y2="76.44" gradientTransform="translate(39.18 -26.45) rotate(19.56)" gradientUnits="userSpaceOnUse"><stop offset="0" stop-color="#fff"/><stop offset="1"/></linearGradient><linearGradient id="흰색_검정-2" x1="128.11" y1="57.34" x2="319.97" y2="57.34" gradientTransform="matrix(1, 0, 0, 1, 0, 0)" xlink:href="#흰색_검정"/><mask id="mask" x="-0.03" y="38.05" width="192.63" height="124.67" maskUnits="userSpaceOnUse"><rect class="cls-1" x="5.24" y="65.92" width="182.1" height="68.94" rx="3.69" ry="3.69" transform="translate(-28.06 38.04) rotate(-19.56)"/></mask><mask id="mask-2" x="107.11" y="10.19" width="231.71" height="94.29" maskUnits="userSpaceOnUse"><rect class="cls-2" x="107.11" y="10.19" width="231.71" height="94.29"/></mask></defs><title>자산 7</title><g id="레이어_2" data-name="레이어 2"><g id="레이어_1-2" data-name="레이어 1"><g class="cls-3"><g class="cls-4"><path class="cls-5" d="M25.15,162.15a4.23,4.23,0,0,1-4-2.8L.81,102.05a4.22,4.22,0,0,1,2.56-5.38L166,38.87a4.21,4.21,0,0,1,5.38,2.56l20.36,57.3a4.22,4.22,0,0,1-2.56,5.38L26.56,161.91A4.21,4.21,0,0,1,25.15,162.15Z"/><path class="cls-6" d="M167.43,39.19a3.65,3.65,0,0,1,3.44,2.43l20.36,57.3a3.65,3.65,0,0,1-2.22,4.66L26.37,161.38a3.64,3.64,0,0,1-4.66-2.22L1.35,101.86A3.65,3.65,0,0,1,3.56,97.2L166.21,39.4a3.64,3.64,0,0,1,1.22-.21m0-1.13a4.77,4.77,0,0,0-1.6.28L3.18,96.13a4.78,4.78,0,0,0-2.91,6.11l20.36,57.3a4.78,4.78,0,0,0,6.11,2.91l162.64-57.8a4.79,4.79,0,0,0,2.91-6.11l-20.36-57.3a4.79,4.79,0,0,0-4.51-3.18Z"/><text class="cls-7" transform="translate(80.12 113.61) rotate(-19.56)">가맹점A</text><path class="cls-5" d="M31.32,148.54a2.71,2.71,0,0,1-2.54-1.79L14.63,107.52a2.7,2.7,0,0,1,1.63-3.46L55.48,89.92a2.7,2.7,0,0,1,3.46,1.63l14.14,39.23a2.71,2.71,0,0,1-1.63,3.46L32.23,148.38A2.7,2.7,0,0,1,31.32,148.54Z"/><path class="cls-6" d="M56.4,90.14a2.32,2.32,0,0,1,2.18,1.53L72.72,130.9a2.32,2.32,0,0,1-1.39,3L32.1,148a2.31,2.31,0,0,1-3-1.39L15,107.39a2.32,2.32,0,0,1,1.39-3L55.62,90.28a2.31,2.31,0,0,1,.79-.14m0-.77h0a3.08,3.08,0,0,0-1,.18L16.12,103.7a3.09,3.09,0,0,0-1.86,4l14.14,39.23a3.09,3.09,0,0,0,4,1.86L71.59,134.6a3.09,3.09,0,0,0,1.86-4L59.31,91.41a3.1,3.1,0,0,0-2.91-2Z"/><rect class="cls-8" x="34.51" y="114.81" width="22.24" height="18.48" rx="1.95" ry="1.95" transform="translate(-39.37 22.83) rotate(-19.83)"/><path class="cls-9" d="M50,107.95a.62.62,0,0,0-.55-.06L44,109.84l-6.31,2.28-5.4,1.95a.62.62,0,0,0-.38.39l-1.94,6a2.55,2.55,0,0,0,3.16,3.24l0,0a2.88,2.88,0,0,0,1.82-2,.59.59,0,0,1,.91-.33,2.88,2.88,0,0,0,4.51-1.62.59.59,0,0,1,.91-.33,2.88,2.88,0,0,0,4.51-1.62.59.59,0,0,1,.91-.33,2.88,2.88,0,0,0,4.51-1.62.59.59,0,0,1,.91-.33,2.88,2.88,0,0,0,2.69.39h0a2.52,2.52,0,0,0,.48-4.48Z"/><circle class="cls-10" cx="40.91" cy="110.97" r="5.76" transform="translate(-35.21 20.45) rotate(-19.83)"/><path class="cls-11" d="M43.7,112.47l-.85.31L42,111.72l-1.48.53v1.36l-.8.29,0-5,.7-.25Zm-3.2-.95,1-.37-.62-.79-.26-.32-.21-.27v.35c0,.06,0,.12,0,.18s0,.14,0,.23Z"/><path class="cls-11" d="M50.88,128.17l-1.35-3.76a3.55,3.55,0,0,0-6.68,2.41l1.35,3.76Z"/></g></g><rect class="cls-11" x="112.89" y="111.12" width="220.33" height="84.03" rx="4.95" ry="4.95"/><path class="cls-6" d="M328.27,111.62a4.45,4.45,0,0,1,4.45,4.45v74.14a4.45,4.45,0,0,1-4.45,4.45H117.84a4.45,4.45,0,0,1-4.45-4.45V116.07a4.45,4.45,0,0,1,4.45-4.45H328.27m0-1H117.84a5.45,5.45,0,0,0-5.45,5.45v74.14a5.45,5.45,0,0,0,5.45,5.45H328.27a5.45,5.45,0,0,0,5.45-5.45V116.07a5.45,5.45,0,0,0-5.45-5.45Z"/><text class="cls-12" transform="translate(199.12 161.78)">가맹점C</text><rect class="cls-5" x="126.12" y="124.76" width="56.77" height="56.76" rx="3.26" ry="3.26"/><path class="cls-6" d="M179.63,125.22a2.79,2.79,0,0,1,2.79,2.79v50.25a2.79,2.79,0,0,1-2.79,2.79H129.38a2.79,2.79,0,0,1-2.79-2.79V128a2.79,2.79,0,0,1,2.79-2.79h50.25m0-.93H129.38a3.73,3.73,0,0,0-3.72,3.72v50.25a3.73,3.73,0,0,0,3.72,3.72h50.25a3.73,3.73,0,0,0,3.72-3.72V128a3.73,3.73,0,0,0-3.72-3.72Z"/><rect class="cls-13" x="141.11" y="148.29" width="26.8" height="22.27" rx="2.35" ry="2.35"/><path class="cls-9" d="M166,143a.75.75,0,0,0-.59-.29H143.52a.75.75,0,0,0-.59.29l-4.65,6a3.07,3.07,0,0,0,2.26,5h.06a3.47,3.47,0,0,0,2.89-1.54.71.71,0,0,1,1.17,0,3.47,3.47,0,0,0,5.77,0,.71.71,0,0,1,1.17,0,3.47,3.47,0,0,0,5.77,0,.71.71,0,0,1,1.17,0,3.47,3.47,0,0,0,5.77,0,.71.71,0,0,1,1.17,0,3.47,3.47,0,0,0,2.89,1.54h0a3,3,0,0,0,2.37-4.89Z"/><circle class="cls-14" cx="154.5" cy="142.66" r="6.94"/><path class="cls-11" d="M154.65,139.79a3.58,3.58,0,0,1,1.05.14,2.66,2.66,0,0,1,.88.48l-.54.77a1.8,1.8,0,0,0-.68-.38,2.76,2.76,0,0,0-.72-.09,1.65,1.65,0,0,0-.49.07,1,1,0,0,0-.43.27,1.43,1.43,0,0,0-.3.53,2.65,2.65,0,0,0-.12.86V143a2.32,2.32,0,0,0,.11.76,1.38,1.38,0,0,0,.29.51,1.1,1.1,0,0,0,.43.29,1.43,1.43,0,0,0,.51.09,2.81,2.81,0,0,0,.8-.12,1.71,1.71,0,0,0,.75-.46l.53.77a2.14,2.14,0,0,1-.53.39,3.25,3.25,0,0,1-.55.23,2.74,2.74,0,0,1-.54.11l-.5,0a2.9,2.9,0,0,1-.88-.13A1.94,1.94,0,0,1,153,145a2.06,2.06,0,0,1-.5-.73,2.78,2.78,0,0,1-.19-1.08v-1a2.9,2.9,0,0,1,.18-1.09,2.1,2.1,0,0,1,.5-.76,2,2,0,0,1,.75-.44A2.91,2.91,0,0,1,154.65,139.79Z"/><path class="cls-11" d="M158.78,166.24v-4.81a4.28,4.28,0,1,0-8.55,0v4.81Z"/><circle class="cls-6" cx="64.73" cy="153.14" r="12.46"/><text class="cls-15" transform="translate(60.34 158.43)">2</text><circle class="cls-6" cx="64.73" cy="57.66" r="12.46"/><text class="cls-15" transform="translate(59.31 63.48)">1</text><g class="cls-16"><g class="cls-17"><rect class="cls-18" x="112.89" y="15.65" width="220.33" height="84.03" rx="4.95" ry="4.95"/><path class="cls-6" d="M328.27,16.15a4.45,4.45,0,0,1,4.45,4.45V94.73a4.45,4.45,0,0,1-4.45,4.45H117.84a4.45,4.45,0,0,1-4.45-4.45V20.6a4.45,4.45,0,0,1,4.45-4.45H328.27m0-1H117.84a5.45,5.45,0,0,0-5.45,5.45V94.73a5.45,5.45,0,0,0,5.45,5.45H328.27a5.45,5.45,0,0,0,5.45-5.45V20.6a5.45,5.45,0,0,0-5.45-5.45Z"/><g class="cls-19"><text class="cls-12" transform="translate(199.12 66.38)">가맹점A</text></g><rect class="cls-5" x="126.12" y="28.77" width="56.77" height="56.76" rx="3.26" ry="3.26"/><path class="cls-6" d="M179.63,29.23A2.79,2.79,0,0,1,182.42,32V82.27a2.79,2.79,0,0,1-2.79,2.79H129.38a2.79,2.79,0,0,1-2.79-2.79V32a2.79,2.79,0,0,1,2.79-2.79h50.25m0-.93H129.38A3.73,3.73,0,0,0,125.66,32V82.27A3.73,3.73,0,0,0,129.38,86h50.25a3.73,3.73,0,0,0,3.72-3.72V32a3.73,3.73,0,0,0-3.72-3.72Z"/><rect class="cls-8" x="141.11" y="52.3" width="26.8" height="22.27" rx="2.35" ry="2.35"/><path class="cls-9" d="M166,47a.75.75,0,0,0-.59-.29H143.52a.75.75,0,0,0-.59.29l-4.65,6a3.07,3.07,0,0,0,2.26,5h.06a3.47,3.47,0,0,0,2.89-1.54.71.71,0,0,1,1.17,0,3.47,3.47,0,0,0,5.77,0,.71.71,0,0,1,1.17,0,3.47,3.47,0,0,0,5.77,0,.71.71,0,0,1,1.17,0,3.47,3.47,0,0,0,5.77,0,.71.71,0,0,1,1.17,0,3.47,3.47,0,0,0,2.89,1.54h0A3,3,0,0,0,170.74,53Z"/><circle class="cls-10" cx="154.5" cy="46.67" r="6.94"/><path class="cls-11" d="M157.06,49.52H156L155.43,48h-1.9L153,49.52h-1L154,43.89h.9Zm-3.24-2.38h1.32L154.76,46c-.07-.19-.12-.34-.16-.47l-.12-.39-.06.21-.06.19-.07.21-.09.26Z"/><path class="cls-11" d="M158.78,70.25V65.44a4.28,4.28,0,0,0-8.55,0v4.81Z"/></g><path class="cls-6" d="M328.27,16.15a4.45,4.45,0,0,1,4.45,4.45V94.73a4.45,4.45,0,0,1-4.45,4.45H117.84a4.45,4.45,0,0,1-4.45-4.45V20.6a4.45,4.45,0,0,1,4.45-4.45H328.27m0-1H117.84a5.45,5.45,0,0,0-5.45,5.45V94.73a5.45,5.45,0,0,0,5.45,5.45H328.27a5.45,5.45,0,0,0,5.45-5.45V20.6a5.45,5.45,0,0,0-5.45-5.45Z"/></g><rect class="cls-11" x="215.09" y="0.5" width="220.33" height="84.03" rx="4.95" ry="4.95"/><path class="cls-6" d="M430.48,1a4.45,4.45,0,0,1,4.45,4.45V79.58A4.45,4.45,0,0,1,430.48,84H220a4.45,4.45,0,0,1-4.45-4.45V5.45A4.45,4.45,0,0,1,220,1H430.48m0-1H220a5.45,5.45,0,0,0-5.45,5.45V79.58A5.45,5.45,0,0,0,220,85H430.48a5.45,5.45,0,0,0,5.45-5.45V5.45A5.45,5.45,0,0,0,430.48,0Z"/><g class="cls-19"><text class="cls-12" transform="translate(301.33 37.58)">가맹점B</text></g><text class="cls-20" transform="translate(323.58 62.54)">이벤트 진행</text><path class="cls-8" d="M305.69,53.46a3.29,3.29,0,0,1,2-3h-.25a2.8,2.8,0,0,0-2.68,2.49.51.51,0,0,0-.35.53.49.49,0,0,0,.38.53,2.72,2.72,0,0,0,2.31,2.28h0l.14,0,.11,0A3.28,3.28,0,0,1,305.69,53.46Z"/><path class="cls-8" d="M318.74,50.46l-.12-.27a3.64,3.64,0,0,0-.77-1.15,1.81,1.81,0,0,0-1.24-.53,1.65,1.65,0,0,0-.8.21h0l-.12.07a11.78,11.78,0,0,1-5.38,1.63c-.22,0-.43,0-.65,0h-1.4a3.34,3.34,0,0,0-.37,5.88c.43.36,1.38.39,1.32.79a7.46,7.46,0,0,1-.26,1,19,19,0,0,0-.84,4.79c0,.07,0,.12,0,.22s.07.21.28.21h2.54c.22,0,.32-.11.31-.31s0-.14,0-.22a18.09,18.09,0,0,1-.11-2.7,11.68,11.68,0,0,1,.23-2,3.74,3.74,0,0,1,.4-1,14.79,14.79,0,0,1,3.81,1s.24.11.33.17a1.62,1.62,0,0,0,.71.17h.09a2,2,0,0,0,1.15-.65,3.55,3.55,0,0,0,.77-1.15l.12-.28a8.9,8.9,0,0,0,0-5.83ZM318,56.3c-.26.61-.6,1.1-1,1.1s-.71-.49-1-1.1a8.87,8.87,0,0,1,0-5.84c.26-.61.6-1,1-1s.71.37,1,1a8.87,8.87,0,0,1,0,5.84Z"/><rect class="cls-5" x="228.32" y="13.61" width="57.81" height="57.81" rx="3.32" ry="3.32"/><path class="cls-6" d="M282.81,14.08a2.84,2.84,0,0,1,2.84,2.84V68.11a2.84,2.84,0,0,1-2.84,2.84H231.63a2.84,2.84,0,0,1-2.84-2.84V16.93a2.84,2.84,0,0,1,2.84-2.84h51.18m0-.95H231.63a3.8,3.8,0,0,0-3.79,3.79V68.11a3.8,3.8,0,0,0,3.79,3.79h51.18a3.8,3.8,0,0,0,3.79-3.79V16.93a3.8,3.8,0,0,0-3.79-3.79Z"/><rect class="cls-9" x="243.58" y="37.58" width="27.29" height="22.68" rx="2.39" ry="2.39"/><path class="cls-8" d="M269,32.14a.76.76,0,0,0-.6-.3H246a.76.76,0,0,0-.6.3l-4.73,6.12a3.12,3.12,0,0,0,2.3,5.06h.06A3.53,3.53,0,0,0,246,41.74a.72.72,0,0,1,1.19,0,3.54,3.54,0,0,0,5.88,0,.72.72,0,0,1,1.19,0,3.54,3.54,0,0,0,5.88,0,.72.72,0,0,1,1.19,0,3.54,3.54,0,0,0,5.88,0,.72.72,0,0,1,1.19,0,3.53,3.53,0,0,0,2.94,1.57h0a3.09,3.09,0,0,0,2.42-5Z"/><circle class="cls-21" cx="257.22" cy="31.84" r="7.07"/><path class="cls-11" d="M255.48,29h2.23q1.81,0,1.81,1.4v.17a1.52,1.52,0,0,1,0,.37,1,1,0,0,1-.43.6,1.37,1.37,0,0,1-.43.18,1.51,1.51,0,0,1,.85.39,1.22,1.22,0,0,1,.32.91v.2a1.42,1.42,0,0,1-.45,1.11,2,2,0,0,1-1.38.4h-2.47Zm1,.84v1.49h.75l.53,0a1.1,1.1,0,0,0,.39-.09.51.51,0,0,0,.24-.22.85.85,0,0,0,.08-.42v-.14a.48.48,0,0,0-.28-.49,2.5,2.5,0,0,0-.93-.12Zm0,4h.92a5.54,5.54,0,0,0,.58,0,1.21,1.21,0,0,0,.41-.11.55.55,0,0,0,.24-.23.87.87,0,0,0,.08-.41v-.18a.82.82,0,0,0-.08-.37.56.56,0,0,0-.25-.24,1.36,1.36,0,0,0-.46-.13,5.58,5.58,0,0,0-.69,0h-.77Z"/><path class="cls-11" d="M261.58,55.86V51a4.35,4.35,0,1,0-8.71,0v4.9Z"/><line class="cls-22" x1="317.51" y1="97.72" x2="317.51" y2="228.16"/><polygon class="cls-23" points="308.63 102.21 326.38 101.66 317.06 87.48 308.63 102.21"/><circle class="cls-6" cx="64.65" cy="248.62" r="12.46"/><text class="cls-15" transform="translate(60.26 253.9)">3</text><rect class="cls-24" x="113.39" y="207.1" width="219.33" height="83.03" rx="4.45" ry="4.45"/><g class="cls-19"><text class="cls-12" transform="translate(199.12 243.68)">가맹점B</text></g><text class="cls-20" transform="translate(221.38 268.64)">이벤트 진행</text><path class="cls-8" d="M203.48,259.56a3.29,3.29,0,0,1,2-3h-.25a2.8,2.8,0,0,0-2.68,2.49.51.51,0,0,0-.35.53.49.49,0,0,0,.38.53,2.72,2.72,0,0,0,2.31,2.28h0l.14,0,.11,0A3.28,3.28,0,0,1,203.48,259.56Z"/><path class="cls-8" d="M216.53,256.56l-.12-.27a3.64,3.64,0,0,0-.77-1.15,1.81,1.81,0,0,0-1.24-.53,1.65,1.65,0,0,0-.8.21h0l-.12.07a11.78,11.78,0,0,1-5.38,1.63c-.22,0-.43,0-.65,0h-1.4a3.34,3.34,0,0,0-.37,5.88c.43.36,1.38.39,1.32.79a7.46,7.46,0,0,1-.26,1,19,19,0,0,0-.84,4.79c0,.07,0,.12,0,.22s.07.21.28.21h2.54c.22,0,.32-.11.31-.31s0-.14,0-.22a18.09,18.09,0,0,1-.11-2.7,11.68,11.68,0,0,1,.23-2,3.74,3.74,0,0,1,.4-1,14.79,14.79,0,0,1,3.81,1s.24.11.33.17a1.62,1.62,0,0,0,.71.17h.09a2,2,0,0,0,1.15-.65,3.55,3.55,0,0,0,.77-1.15l.12-.28a8.9,8.9,0,0,0,0-5.83Zm-.76,5.84c-.26.61-.6,1.1-1,1.1s-.71-.49-1-1.1a8.87,8.87,0,0,1,0-5.84c.26-.61.6-1,1-1s.71.37,1,1a8.87,8.87,0,0,1,0,5.84Z"/><rect class="cls-5" x="126.12" y="219.72" width="56.77" height="56.76" rx="3.26" ry="3.26"/><path class="cls-6" d="M179.63,220.18a2.79,2.79,0,0,1,2.79,2.79v50.25a2.79,2.79,0,0,1-2.79,2.79H129.38a2.79,2.79,0,0,1-2.79-2.79V223a2.79,2.79,0,0,1,2.79-2.79h50.25m0-.93H129.38a3.73,3.73,0,0,0-3.72,3.72v50.25a3.73,3.73,0,0,0,3.72,3.72h50.25a3.73,3.73,0,0,0,3.72-3.72V223a3.73,3.73,0,0,0-3.72-3.72Z"/><rect class="cls-9" x="141.11" y="243.25" width="26.8" height="22.27" rx="2.35" ry="2.35"/><path class="cls-8" d="M166,237.91a.75.75,0,0,0-.59-.29H143.52a.75.75,0,0,0-.59.29l-4.65,6a3.07,3.07,0,0,0,2.26,5h.06a3.47,3.47,0,0,0,2.89-1.54.71.71,0,0,1,1.17,0,3.47,3.47,0,0,0,5.77,0,.71.71,0,0,1,1.17,0,3.47,3.47,0,0,0,5.77,0,.71.71,0,0,1,1.17,0,3.47,3.47,0,0,0,5.77,0,.71.71,0,0,1,1.17,0,3.47,3.47,0,0,0,2.89,1.54h0a3,3,0,0,0,2.37-4.89Z"/><circle class="cls-21" cx="154.5" cy="237.62" r="6.94"/><path class="cls-11" d="M152.8,234.84H155q1.77,0,1.77,1.37v.16a1.49,1.49,0,0,1,0,.36,1,1,0,0,1-.43.59,1.35,1.35,0,0,1-.42.18,1.48,1.48,0,0,1,.83.39,1.19,1.19,0,0,1,.32.89v.2a1.4,1.4,0,0,1-.44,1.09,2,2,0,0,1-1.35.39H152.8Zm1,.83v1.47h.73l.52,0a1.08,1.08,0,0,0,.38-.09.5.5,0,0,0,.23-.21.84.84,0,0,0,.08-.41v-.14a.47.47,0,0,0-.28-.48,2.45,2.45,0,0,0-.91-.12Zm0,4h.91a5.44,5.44,0,0,0,.57,0,1.19,1.19,0,0,0,.41-.11.54.54,0,0,0,.24-.23.86.86,0,0,0,.08-.4v-.17a.8.8,0,0,0-.07-.36.55.55,0,0,0-.25-.23,1.34,1.34,0,0,0-.45-.12,5.48,5.48,0,0,0-.68,0h-.76Z"/><path class="cls-11" d="M158.78,261.2v-4.81a4.28,4.28,0,1,0-8.55,0v4.81Z"/></g></g></svg>